<?xml version="1.0" encoding="UTF-8" standalone="no"?>
<!-- Created with Inkscape (http://www.inkscape.org/) -->

<svg
   xmlns:dc="http://purl.org/dc/elements/1.1/"
   xmlns:cc="http://creativecommons.org/ns#"
   xmlns:rdf="http://www.w3.org/1999/02/22-rdf-syntax-ns#"
   xmlns:svg="http://www.w3.org/2000/svg"
   xmlns="http://www.w3.org/2000/svg"
   xmlns:sodipodi="http://sodipodi.sourceforge.net/DTD/sodipodi-0.dtd"
   xmlns:inkscape="http://www.inkscape.org/namespaces/inkscape"
   width="210mm"
   height="297mm"
   viewBox="0 0 210 297"
   version="1.1"
   id="svg183"
   inkscape:version="0.92.1 r15371"
   sodipodi:docname="16.svg">
  <defs
     id="defs177" />
  <sodipodi:namedview
     id="base"
     pagecolor="#ffffff"
     bordercolor="#666666"
     borderopacity="1.0"
     inkscape:pageopacity="0.0"
     inkscape:pageshadow="2"
     inkscape:zoom="0.35"
     inkscape:cx="-97.142857"
     inkscape:cy="560"
     inkscape:document-units="mm"
     inkscape:current-layer="layer1"
     showgrid="false"
     inkscape:window-width="1920"
     inkscape:window-height="1043"
     inkscape:window-x="1920"
     inkscape:window-y="0"
     inkscape:window-maximized="1" />
  <metadata
     id="metadata180">
    <rdf:RDF>
      <cc:Work
         rdf:about="">
        <dc:format>image/svg+xml</dc:format>
        <dc:type
           rdf:resource="http://purl.org/dc/dcmitype/StillImage" />
        <dc:title></dc:title>
      </cc:Work>
    </rdf:RDF>
  </metadata>
  <g
     inkscape:label="Camada 1"
     inkscape:groupmode="layer"
     id="layer1">
    <path
       d="m 128.49686,129.96657 c 7.20156,0.68556 12.94868,6.43763 13.6406,13.64272 -7.20862,-0.68626 -12.95575,-6.43763 -13.6406,-13.64272 z m -2.8312,20.59858 c 0,2.59751 -1.48268,4.9712 -3.77023,6.13757 -0.0212,-0.0226 -0.0494,-0.036 -0.0777,-0.0494 -0.77664,-0.58319 -1.63801,-1.05623 -2.56997,-1.3923 -0.0635,-0.0205 -0.12709,-0.0409 -0.18357,-0.0593 -0.43774,-0.14827 -0.88961,-0.26406 -1.34853,-0.34455 -0.0847,-0.012 -0.17651,-0.0268 -0.26123,-0.0402 -0.46599,-0.0678 -0.94609,-0.11297 -1.42619,-0.11297 -0.0353,0 -0.16239,0.005 -0.31772,0.0254 -0.38126,0.0134 -0.76252,0.0417 -1.15084,0.10097 -0.007,-0.0332 -0.007,-0.0593 -0.0141,-0.0875 -0.0494,-0.36361 -0.12708,-0.72016 -0.21181,-1.06965 -0.0212,-0.0607 -0.0282,-0.12002 -0.0494,-0.18639 -0.23299,-0.83665 -0.57895,-1.61682 -1.00963,-2.34333 -0.0282,-0.0403 -0.0424,-0.0805 -0.0706,-0.12073 -0.23299,-0.36291 -0.47305,-0.72016 -0.74134,-1.04988 0.0353,-0.0198 0.0635,-0.0403 0.10591,-0.053 0.30359,-0.10802 0.58601,-0.2344 0.86136,-0.37702 0.0424,-0.0205 0.0847,-0.0402 0.12709,-0.0607 0.30359,-0.16168 0.59307,-0.32972 0.8896,-0.51823 0,0 0.007,-0.006 0.0141,-0.006 1.85687,-1.23768 3.26189,-3.0882 3.9185,-5.26702 3.94674,-0.24288 7.28628,2.94628 7.28628,6.87466 z m -9.63739,20.66566 c -1.49679,0 -2.9371,-0.4907 -4.13737,-1.38313 0,-0.008 0,-0.0155 0,-0.0226 0,-0.45751 -0.0494,-0.9009 -0.1059,-1.33864 -0.0141,-0.0784 -0.0212,-0.16027 -0.0424,-0.24217 -0.15533,-0.94821 -0.45186,-1.84769 -0.87548,-2.68435 l -0.0212,-0.0402 c -0.21887,-0.43633 -0.47305,-0.8543 -0.75546,-1.25109 l -0.007,-0.007 c 0.66368,-0.41021 1.25675,-0.9009 1.79333,-1.45161 0.0918,-0.0953 0.18357,-0.19628 0.27536,-0.28947 0.20475,-0.23653 0.38832,-0.47234 0.57894,-0.71945 0.0847,-0.10873 0.16239,-0.21464 0.24006,-0.33043 0.21181,-0.30853 0.4095,-0.63967 0.57189,-0.96868 0.1059,-0.19557 0.19769,-0.40385 0.28241,-0.60578 0.0635,-0.15462 0.13415,-0.31489 0.19769,-0.47798 0.0918,-0.24853 0.16945,-0.48928 0.24005,-0.75334 0.0141,-0.0402 0.0212,-0.0741 0.0424,-0.11438 0.0635,-0.27535 0.14121,-0.54365 0.19063,-0.82747 0.50835,-0.13415 1.15084,-0.269 1.5321,-0.269 0.45186,0 0.90373,0.0537 1.33441,0.13485 0.18357,0.0402 0.36714,0.10732 0.55071,0.16098 0.23299,0.0678 0.46598,0.12779 0.69897,0.21534 0.21887,0.0939 0.42362,0.21534 0.63543,0.33113 0.16945,0.0861 0.34596,0.16662 0.50835,0.27606 0.21887,0.1412 0.42362,0.31418 0.62837,0.48999 1.5321,1.25744 2.53467,3.1475 2.53467,5.28043 0,3.80059 -3.09244,6.88808 -6.89091,6.88808 z m -13.77475,5.5099 c -1.55327,0 -3.02183,-0.50906 -4.22915,-1.45161 0,-0.0282 0,-0.0558 0.007,-0.0819 0.0494,-0.40386 0.0847,-0.80771 0.0847,-1.21791 0,-0.31631 -0.0141,-0.63049 -0.0494,-0.94186 -0.007,-0.0875 -0.0212,-0.16168 -0.0353,-0.24852 -0.0282,-0.22734 -0.0565,-0.45822 -0.0988,-0.68556 -0.0212,-0.0819 -0.0424,-0.16239 -0.0635,-0.24288 -0.0424,-0.2224 -0.0988,-0.44409 -0.16944,-0.65731 -0.0212,-0.0812 -0.0424,-0.15533 -0.0706,-0.22947 -0.0777,-0.21463 -0.14827,-0.43068 -0.233,-0.64602 -0.0353,-0.0734 -0.0635,-0.1405 -0.0988,-0.21463 -0.0847,-0.20899 -0.18356,-0.40527 -0.28947,-0.60719 -0.0353,-0.0805 -0.0847,-0.15463 -0.12709,-0.22876 -0.0988,-0.18216 -0.20475,-0.35655 -0.32477,-0.53023 -0.0494,-0.089 -0.11297,-0.17581 -0.16945,-0.26335 -0.10591,-0.14827 -0.21181,-0.28948 -0.32478,-0.43139 -0.0847,-0.10732 -0.16239,-0.20828 -0.24711,-0.3156 -0.0282,-0.0332 -0.0565,-0.0657 -0.0918,-0.10732 0.0635,-0.16662 0.14121,-0.32971 0.21887,-0.49069 l 0.15533,-0.31489 c 0.66367,-1.36124 1.77921,-2.47819 3.1348,-3.14398 l 0.36008,-0.18145 c 0.0988,-0.0403 0.20475,-0.0868 0.30359,-0.11932 0.21181,-0.0798 0.43774,-0.14262 0.65662,-0.19628 0.11296,-0.0261 0.23298,-0.0607 0.35301,-0.0812 0.19063,-0.0402 0.40244,-0.0671 0.60719,-0.0861 0.12709,-0.0141 0.26124,-0.0282 0.39538,-0.0353 0.19769,-0.006 0.38832,-0.006 0.57895,0 0.26829,0.007 0.52247,0.0424 0.77664,0.0812 0.27535,0.0402 0.54365,0.0953 0.80488,0.16945 0.20475,0.053 0.39538,0.11367 0.58601,0.18075 0.18357,0.0671 0.36008,0.14756 0.53659,0.22805 0.19769,0.10096 0.39538,0.20828 0.59307,0.32336 0.12708,0.0805 0.26829,0.14756 0.38832,0.23511 0.28241,0.19487 0.53658,0.41021 0.79075,0.64602 0.25418,0.24429 0.48011,0.51188 0.69898,0.78723 0.0706,0.0946 0.16239,0.18287 0.22593,0.27606 0.18357,0.257 0.32478,0.53165 0.46598,0.807 0.0777,0.14121 0.16239,0.269 0.21888,0.4095 0.12002,0.26406 0.18356,0.53871 0.26829,0.81477 0.0494,0.16944 0.12002,0.32971 0.16239,0.50481 0.0847,0.45892 0.1412,0.92844 0.1412,1.39936 0,3.79989 -3.09949,6.88808 -6.8909,6.88808 z m -13.78181,4.13736 c -1.65918,0 -3.21952,-0.5853 -4.4692,-1.65495 0.007,-0.0268 0.007,-0.0522 0.0212,-0.0805 0.0847,-0.3283 0.14827,-0.65943 0.19769,-1.00257 0.0141,-0.0741 0.0282,-0.15462 0.0353,-0.23511 0.0424,-0.37702 0.0777,-0.76675 0.0777,-1.16425 0,-0.48363 -0.0494,-0.96162 -0.11296,-1.42619 -0.0141,-0.0861 -0.0282,-0.1751 -0.0424,-0.26194 -0.0777,-0.45751 -0.19769,-0.90726 -0.3389,-1.3457 -0.0212,-0.0593 -0.0424,-0.12073 -0.0706,-0.18145 -0.32478,-0.9355 -0.79782,-1.79616 -1.38383,-2.57703 -0.007,-0.0134 -0.0141,-0.0247 -0.0282,-0.0381 0.0847,-0.15674 0.14121,-0.31772 0.24005,-0.46669 0.0353,-0.0734 0.0777,-0.14756 0.12709,-0.21534 0.24005,-0.36997 0.50834,-0.71239 0.819,-1.02234 0.0212,-0.0261 0.0494,-0.0466 0.0635,-0.0671 0.32477,-0.32266 0.67073,-0.61213 1.05905,-0.86772 l 0.007,-0.005 c 0.40244,-0.26405 0.83312,-0.49281 1.29205,-0.66791 l 0.0988,-0.0395 c 0.3742,-0.14827 0.76958,-0.25629 1.17202,-0.33042 0.1765,-0.0339 0.33889,-0.0537 0.49422,-0.0734 0.24711,-0.0268 0.49422,-0.0544 0.74134,-0.0544 0.41656,0 0.81194,0.0544 1.20732,0.12144 0.12708,0.0198 0.24711,0.0473 0.3742,0.0805 0.28947,0.0678 0.57895,0.1638 0.8543,0.26194 0.0988,0.041 0.20475,0.0678 0.30359,0.11649 0.76958,0.33466 1.46856,0.80559 2.06163,1.38383 0.24005,0.23582 0.45186,0.49846 0.64955,0.76746 0.0706,0.0939 0.16945,0.18216 0.24005,0.28241 0.15533,0.23017 0.2683,0.47799 0.39538,0.72793 0.49423,0.9475 0.80488,2.00514 0.80488,3.1468 0,0.41726 -0.0565,0.82041 -0.12709,1.21791 -0.0141,0.0819 -0.0212,0.16804 -0.0424,0.24852 -0.67779,3.09526 -3.43133,5.42235 -6.72145,5.42235 z m -13.77474,2.75142 c -3.79847,0 -6.89091,-3.0882 -6.89091,-6.88878 0,-2.75142 1.63094,-5.11029 3.96792,-6.21523 0.18357,-0.0819 0.36714,-0.15533 0.55071,-0.2224 0.18357,-0.0678 0.3742,-0.1278 0.57189,-0.18004 0.21887,-0.0558 0.4448,-0.11579 0.65661,-0.15604 0.14121,-0.0205 0.28241,-0.0205 0.41656,-0.041 0.91785,-0.0861 1.85687,-0.005 2.73942,0.26265 0.0847,0.0268 0.16944,0.0537 0.24711,0.0819 0.26123,0.0861 0.50834,0.19416 0.75546,0.31559 0.1412,0.0671 0.28241,0.1405 0.41656,0.2217 0.19063,0.10873 0.3742,0.21463 0.55777,0.34242 0.20475,0.14827 0.40244,0.31702 0.586,0.49352 0.10591,0.0918 0.22594,0.17228 0.32478,0.27536 0.13415,0.1412 0.24711,0.30006 0.3742,0.44904 0.16945,0.20828 0.34596,0.41868 0.49422,0.64602 0.0988,0.16097 0.18357,0.32972 0.2683,0.49775 0.12002,0.21534 0.24711,0.42574 0.33183,0.65238 0.0918,0.21534 0.14827,0.45045 0.21888,0.68627 0.0494,0.18851 0.12708,0.37137 0.16238,0.56482 0.0847,0.42363 0.13415,0.87478 0.13415,1.32523 0,0.43704 -0.0494,0.86137 -0.13415,1.28005 -0.0353,0.22734 -0.11296,0.44903 -0.17651,0.67073 -0.0777,0.23581 -0.12708,0.4794 -0.22593,0.70674 l -0.0141,0.0339 c -1.04493,2.47042 -3.48781,4.19738 -6.33313,4.19738 z m -3.27601,-15.9571 c -0.56483,-1.01599 -0.86136,-2.14423 -0.86136,-3.32966 0,-3.79424 3.09243,-6.88879 6.8909,-6.88879 1.82157,0 3.45958,0.72651 4.69514,1.8837 0.26123,0.23723 0.4801,0.50411 0.69897,0.78017 0.0706,0.0876 0.15533,0.16804 0.21887,0.26264 0.233,0.32266 0.41657,0.6658 0.58601,1.01599 0.0353,0.0664 0.0706,0.12214 0.10591,0.18992 0.16945,0.39538 0.30359,0.819 0.39538,1.24263 0.007,0.0339 0.0282,0.0607 0.0353,0.0946 0.0918,0.46527 0.14827,0.94114 0.14827,1.41913 0,0.32266 -0.0282,0.64531 -0.0777,0.9835 -0.69898,0.34173 -1.34147,0.78724 -1.93454,1.28499 -0.11297,0.0925 -0.24005,0.18004 -0.34596,0.28312 -0.19063,0.16592 -0.36008,0.3629 -0.52952,0.54294 -0.15533,0.16098 -0.3036,0.31772 -0.44481,0.48364 -0.1412,0.17509 -0.26829,0.3636 -0.39538,0.54505 -0.0988,0.14192 -0.21887,0.27606 -0.31771,0.43068 -0.0212,-0.0268 -0.0565,-0.0402 -0.0918,-0.0586 -0.3389,-0.23722 -0.68486,-0.45327 -1.04494,-0.63896 -0.11296,-0.0558 -0.22593,-0.10943 -0.33183,-0.1638 -0.32478,-0.14756 -0.64955,-0.28877 -0.98845,-0.40314 -0.0777,-0.0268 -0.15533,-0.0607 -0.23299,-0.0854 -0.40244,-0.12285 -0.819,-0.21534 -1.24263,-0.28948 -0.1059,-0.0219 -0.21181,-0.0424 -0.32477,-0.0551 -0.4448,-0.0614 -0.88961,-0.10167 -1.33441,-0.10167 -0.52246,0 -1.02375,0.0544 -1.51091,0.1278 -0.0847,0.0134 -0.16239,0.0289 -0.24712,0.0409 -0.4801,0.0875 -0.95314,0.21534 -1.41913,0.37702 -0.0353,0.0127 -0.0635,0.0127 -0.0988,0.0261 z m 1.89924,-19.85795 c 0,-3.802 3.08537,-6.88949 6.88384,-6.88949 0.40244,0 0.80488,0.0473 1.18614,0.11508 0.11297,0.0198 0.21887,0.0402 0.3389,0.0664 0.34595,0.0812 0.69191,0.18216 1.01669,0.31701 0.0918,0.0332 0.18357,0.0727 0.28241,0.11367 0.34596,0.16239 0.68486,0.33678 0.99551,0.55212 l 0.0424,0.0198 c 0.64955,0.44409 1.20732,1.01598 1.68037,1.64789 0.0988,0.1412 0.20475,0.28947 0.28947,0.43138 0.14827,0.22099 0.26123,0.4561 0.38126,0.69262 0.0635,0.13415 0.12709,0.27606 0.18357,0.4095 0.11296,0.28312 0.19769,0.56554 0.26123,0.86207 0.0353,0.12144 0.0777,0.23511 0.0988,0.3629 0.0847,0.41657 0.13415,0.85501 0.13415,1.29911 0,0.42362 -0.0494,0.83312 -0.12709,1.24404 -0.0141,0.0671 -0.0212,0.1412 -0.0353,0.20898 -0.0777,0.34454 -0.19063,0.67215 -0.31065,0.9948 -0.0494,0.13627 -0.10591,0.27042 -0.16945,0.40386 -0.0847,0.1878 -0.18357,0.35655 -0.28948,0.53093 -0.1059,0.18922 -0.20475,0.38409 -0.32477,0.5606 -0.12003,0.15956 -0.25417,0.30077 -0.38126,0.44904 -0.26123,0.31559 -0.54365,0.59871 -0.86136,0.86136 -0.14827,0.1292 -0.28948,0.26406 -0.45187,0.37631 -0.16945,0.12144 -0.36713,0.2217 -0.55776,0.32972 -1.00257,0.57401 -2.14635,0.92985 -3.38191,0.92985 -3.79847,0 -6.88385,-3.09455 -6.88385,-6.88949 z m 12.39092,-22.04595 c 2.83826,0 5.27408,1.72202 6.32607,4.17055 0.16945,0.38337 0.28242,0.78087 0.38126,1.18402 0.0141,0.0487 0.0282,0.0882 0.0424,0.13485 0.0988,0.45751 0.14121,0.92844 0.14121,1.39936 0,0.47093 -0.0424,0.93479 -0.14121,1.3923 -0.0141,0.0544 -0.0282,0.0946 -0.0424,0.14192 -0.0918,0.40314 -0.21181,0.79994 -0.38126,1.18331 -0.50128,1.17061 -1.3344,2.17318 -2.36522,2.89969 -0.0706,0.0544 -0.1412,0.10096 -0.21887,0.14827 -0.31771,0.20828 -0.64955,0.38973 -0.99551,0.54435 -0.0635,0.0275 -0.12002,0.0473 -0.19063,0.0748 -0.79075,0.3156 -1.65212,0.50411 -2.55584,0.50411 -0.20475,0 -0.4095,-0.0134 -0.60719,-0.0339 -0.0353,-0.0205 -0.0706,-0.0332 -0.10591,-0.0537 -0.16239,-0.10096 -0.3389,-0.19487 -0.52247,-0.28312 -0.0918,-0.0466 -0.19062,-0.0868 -0.28241,-0.13344 -0.18357,-0.0812 -0.36714,-0.16168 -0.55071,-0.22946 -0.0847,-0.0332 -0.18357,-0.0671 -0.27535,-0.10097 -0.19769,-0.0741 -0.40244,-0.13414 -0.61425,-0.1878 -0.0706,-0.0205 -0.14827,-0.0402 -0.21887,-0.0607 -0.22593,-0.0537 -0.45893,-0.10803 -0.69192,-0.14756 -0.0212,0 -0.0424,-0.007 -0.0635,-0.0141 -1.85687,-1.29204 -2.95122,-3.38402 -2.95122,-5.64404 0,-3.8013 3.08537,-6.88879 6.88384,-6.88879 z m 9.08667,3.63961 c 1.18614,-2.22684 3.51606,-3.63961 6.0719,-3.63961 3.36779,0 6.17781,2.42876 6.77794,5.62427 -0.0565,0.006 -0.1059,0.0261 -0.14826,0.0339 -0.43068,0.0741 -0.84725,0.16733 -1.25675,0.29583 -0.0212,0.006 -0.0494,0.0198 -0.0777,0.0268 -0.38126,0.12779 -0.75545,0.28383 -1.11553,0.45045 -0.0988,0.041 -0.18357,0.0868 -0.2683,0.12779 -0.37419,0.19558 -0.73427,0.39609 -1.08023,0.63261 -0.0353,0.0268 -0.0706,0.06 -0.11297,0.0875 -0.31065,0.21534 -0.60719,0.45681 -0.8896,0.7131 -0.0706,0.06 -0.14121,0.12073 -0.21181,0.1878 -0.29654,0.28948 -0.57895,0.59237 -0.84018,0.90867 -0.0424,0.0466 -0.0777,0.10026 -0.10591,0.14756 -0.23299,0.28948 -0.4448,0.59872 -0.63543,0.91502 -0.0494,0.0741 -0.0918,0.15462 -0.14121,0.23582 -0.21181,0.3629 -0.38832,0.73286 -0.5507,1.1233 -0.0282,0.0671 -0.0494,0.13415 -0.0847,0.20828 -0.12709,0.34313 -0.24006,0.69262 -0.32478,1.05623 -0.0212,0.0607 -0.0424,0.10732 -0.0565,0.16804 -0.72016,-0.5373 -1.51092,-0.96162 -2.3511,-1.27722 -0.0777,-0.0346 -0.15532,-0.0607 -0.23299,-0.0883 -0.40244,-0.13486 -0.79782,-0.24853 -1.20732,-0.33678 -0.0777,-0.0127 -0.15533,-0.0332 -0.23299,-0.0466 -0.0847,-0.0141 -0.16945,-0.0473 -0.25417,-0.0607 -0.26124,-0.32336 -0.49423,-0.65944 -0.6778,-1.00822 0.0141,-0.0275 0.0212,-0.0607 0.0282,-0.0946 0.15533,-0.45751 0.28241,-0.92208 0.3742,-1.40572 0.0141,-0.0812 0.0212,-0.16168 0.0353,-0.24287 0.0777,-0.48434 0.13414,-0.98139 0.13414,-1.49327 0,-0.51117 -0.0565,-1.00892 -0.12708,-1.49962 -0.0141,-0.0812 -0.0282,-0.16168 -0.0424,-0.24287 -0.0918,-0.48434 -0.21887,-0.94821 -0.3742,-1.40572 -0.007,-0.0339 -0.0141,-0.0678 -0.0212,-0.10096 z m -4.95637,18.40634 c 0,-0.43139 -0.0282,-0.84866 -0.0847,-1.26522 -0.0141,-0.0875 -0.0282,-0.18215 -0.0424,-0.2697 -0.0635,-0.39609 -0.14826,-0.78017 -0.26123,-1.16355 0,-0.0134 -0.007,-0.0332 -0.0141,-0.053 -0.12003,-0.41868 -0.27535,-0.82182 -0.45892,-1.21862 -0.0212,-0.0537 -0.0494,-0.10732 -0.0777,-0.16803 -0.16239,-0.34243 -0.34596,-0.67921 -0.55071,-1.00893 -0.0141,-0.0275 -0.0353,-0.0671 -0.0565,-0.10096 0.19769,-0.28947 0.43068,-0.56554 0.68485,-0.83383 0.0706,-0.0275 0.14121,-0.0671 0.21888,-0.0939 0.16238,-0.0607 0.31771,-0.12779 0.4801,-0.20192 0.12002,-0.0544 0.24711,-0.11509 0.3742,-0.18216 0.15533,-0.0741 0.31065,-0.16168 0.45892,-0.24853 0.12003,-0.0678 0.24005,-0.1412 0.35302,-0.21534 0.14827,-0.0946 0.28947,-0.18922 0.42362,-0.28241 0.12709,-0.0875 0.24711,-0.1758 0.36008,-0.26971 0.12708,-0.10096 0.24711,-0.19557 0.36713,-0.29583 0.0635,-0.0537 0.12003,-0.10096 0.18358,-0.15462 0.90372,-0.24852 1.80745,-0.28241 2.67587,-0.16874 0.28947,0.0409 0.57189,0.0882 0.84724,0.1638 0.10591,0.0254 0.21181,0.0586 0.31772,0.0925 0.30359,0.0939 0.60719,0.20828 0.89666,0.34949 0.0494,0.0268 0.10591,0.0473 0.16239,0.0741 0.72722,0.36996 1.39089,0.87477 1.95572,1.49326 l 0.0918,0.0946 c 0.16945,0.1878 0.33184,0.38338 0.4801,0.59166 0.0212,0.12708 0.0494,0.25487 0.0777,0.37631 0.0565,0.26971 0.11297,0.52459 0.19063,0.78088 0.0635,0.21534 0.12709,0.43068 0.19769,0.6319 0.0635,0.16874 0.14121,0.32336 0.20475,0.48505 0.0706,0.15532 0.14121,0.30995 0.21887,0.46386 0.0847,0.16804 0.16239,0.32972 0.26124,0.4914 0.0212,0.0332 0.0353,0.0734 0.0565,0.10732 0.0212,0.20899 0.0353,0.41091 0.0353,0.61919 0,0.46387 -0.0565,0.91432 -0.14827,1.35841 l -0.0635,0.28312 c -0.35302,1.4262 -1.15084,2.69071 -2.25225,3.61914 -0.0353,0.0268 -0.0706,0.0621 -0.11297,0.0875 -0.0847,0.0734 -0.19063,0.1278 -0.28947,0.19628 -0.21181,-0.20969 -0.43069,-0.40526 -0.65662,-0.59307 -0.22593,-0.18923 -0.47304,-0.37068 -0.7131,-0.53871 l -0.0212,-0.006 c -0.77664,-0.53165 -1.62388,-0.9355 -2.51348,-1.21156 0,-0.006 0,-0.006 -0.007,-0.006 -0.2683,-0.0805 -0.53659,-0.14827 -0.81195,-0.20899 -0.0424,-0.006 -0.0777,-0.0177 -0.12002,-0.0318 -0.25417,-0.0487 -0.50835,-0.0819 -0.76252,-0.11508 -0.0706,-0.008 -0.12709,-0.0212 -0.19769,-0.0275 -0.32478,-0.0332 -0.64249,-0.0544 -0.97433,-0.0544 -0.45186,0 -0.89666,0.048 -1.33441,0.10732 -0.0494,0.008 -0.1059,0 -0.16238,0.0141 0.007,-0.0473 0.007,-0.0939 0.0141,-0.14121 0.0635,-0.4441 0.0988,-0.89455 0.0988,-1.35135 z m 1.98396,17.14183 c -0.28947,-0.10873 -0.58601,-0.20193 -0.8896,-0.28241 -0.0847,-0.0219 -0.16239,-0.0424 -0.24711,-0.0621 -0.28242,-0.0671 -0.57189,-0.11438 -0.86137,-0.15957 -0.0847,-0.009 -0.16239,-0.0282 -0.25417,-0.0424 -0.36008,-0.0402 -0.73428,-0.0671 -1.10142,-0.0671 -0.39537,0 -0.79782,0.0332 -1.23556,0.0939 -0.0494,-0.0403 -0.0918,-0.0734 -0.1412,-0.10802 0,-0.3156 -0.0212,-0.62484 -0.0494,-0.93479 -0.0212,-0.20828 -0.0565,-0.4095 -0.0918,-0.61214 -0.0141,-0.10096 -0.0282,-0.19274 -0.0424,-0.28876 -0.0565,-0.25418 -0.11297,-0.50482 -0.19063,-0.75193 -0.007,-0.0424 -0.0141,-0.0883 -0.0282,-0.13627 -0.0777,-0.25558 -0.16945,-0.51187 -0.2683,-0.76746 -0.007,-0.0261 -0.0212,-0.06 -0.0282,-0.0868 -0.1059,-0.24852 -0.21181,-0.49775 -0.34595,-0.73851 -0.0141,-0.029 -0.0282,-0.0621 -0.0424,-0.089 -0.12003,-0.23582 -0.25418,-0.45751 -0.38832,-0.67991 -0.0282,-0.0402 -0.0494,-0.0805 -0.0706,-0.12073 -0.13415,-0.20828 -0.28242,-0.4088 -0.43068,-0.60578 -0.0424,-0.0466 -0.0777,-0.10026 -0.11297,-0.14756 -0.15533,-0.18852 -0.31066,-0.3622 -0.46598,-0.54506 -0.0353,-0.0318 -0.0706,-0.0741 -0.10591,-0.11226 0.0847,-0.49352 0.21887,-0.98422 0.40244,-1.44879 0.38832,-0.20687 0.7484,-0.4568 1.10142,-0.71239 l 0.0918,-0.0748 c 0.69191,-0.52387 1.31322,-1.14307 1.84275,-1.8364 0.0212,-0.0339 0.0494,-0.0671 0.0706,-0.0918 0.25417,-0.35019 0.50128,-0.70674 0.70603,-1.08517 0.0353,-0.0134 0.0706,-0.0268 0.0988,-0.0402 0.35302,-0.14121 0.72016,-0.25558 1.09436,-0.32972 0.0635,-0.0127 0.12708,-0.0205 0.19063,-0.0339 0.38832,-0.0671 0.79076,-0.11367 1.1932,-0.11367 0.43774,0 0.86842,0.053 1.27792,0.12708 0.0565,0.0141 0.11297,0.0205 0.16239,0.0268 0.39538,0.0897 0.77664,0.20828 1.14378,0.35655 0.0635,0.0275 0.12002,0.0544 0.18357,0.0812 0.36007,0.15603 0.69897,0.34313 1.03081,0.55918 0.0494,0.0339 0.0918,0.0671 0.14826,0.10661 0.28948,0.20334 0.55777,0.43068 0.81195,0.67285 0.0494,0.0473 0.0988,0.0805 0.1412,0.1278 0.24712,0.24217 0.45186,0.51823 0.65661,0.79429 0.11297,0.15462 0.20475,0.31559 0.31066,0.47233 0.12709,0.20617 0.24005,0.41515 0.3389,0.63755 0.0777,0.14898 0.1412,0.29795 0.20475,0.45045 0.0988,0.26265 0.18357,0.53094 0.24711,0.807 0.0353,0.12779 0.0777,0.257 0.1059,0.39044 0.0777,0.41727 0.12709,0.84018 0.12709,1.27792 0,0.41798 -0.0494,0.82748 -0.12709,1.24616 -0.0424,0.18003 -0.11296,0.36996 -0.16238,0.55706 -0.0777,0.25558 -0.13415,0.51117 -0.24711,0.76675 -1.5674,0.86843 -2.85239,2.17318 -3.72787,3.76882 -0.29654,0.12638 -0.57895,0.22664 -0.84724,0.30783 -0.33184,-0.17439 -0.6778,-0.32972 -1.02375,-0.46387 -0.0565,-0.0205 -0.10591,-0.0409 -0.15533,-0.0593 z m 19.19004,-5.56497 c -0.12708,0.22876 -0.26829,0.44409 -0.41656,0.65944 -0.0494,0.06 -0.0918,0.12779 -0.14121,0.19486 -0.13414,0.1751 -0.27535,0.34525 -0.43068,0.50482 -0.0777,0.0805 -0.14826,0.16803 -0.23299,0.24852 -0.13414,0.13486 -0.28241,0.25629 -0.43068,0.38408 -0.10591,0.0798 -0.21181,0.16804 -0.31772,0.24853 -0.1412,0.10943 -0.30359,0.20193 -0.45892,0.30289 -0.12002,0.0734 -0.24005,0.15674 -0.36714,0.21534 -0.0353,0.0219 -0.0777,0.0332 -0.11296,0.0537 -0.0212,-0.0141 -0.0424,-0.0268 -0.0635,-0.0381 -0.7837,-0.58813 -1.65212,-1.05905 -2.57703,-1.38807 -0.0635,-0.0268 -0.12003,-0.0452 -0.18357,-0.0678 -0.43774,-0.14756 -0.88255,-0.26052 -1.34147,-0.34101 -0.0918,-0.0155 -0.17651,-0.0282 -0.26123,-0.0417 -0.46598,-0.0678 -0.94609,-0.11509 -1.42619,-0.11509 -0.50835,0 -1.00963,0.041 -1.51092,0.11509 0.007,-0.041 0.007,-0.0876 0.0141,-0.13485 0.0635,-0.45045 0.11297,-0.89949 0.11297,-1.35912 0,-0.37703 -0.0282,-0.74628 -0.0635,-1.10989 -0.0141,-0.12779 -0.0424,-0.24852 -0.0635,-0.36855 -0.0353,-0.24358 -0.0777,-0.4794 -0.13415,-0.71239 -0.0353,-0.14121 -0.0706,-0.27818 -0.10591,-0.41938 -0.0706,-0.22735 -0.1412,-0.45751 -0.22593,-0.67921 -0.0424,-0.11932 -0.0777,-0.23582 -0.12709,-0.34808 -0.1412,-0.33819 -0.28947,-0.66791 -0.46598,-0.9835 l -0.007,-0.0127 c 0.0777,-0.048 0.14121,-0.11509 0.20475,-0.17651 0.3036,-0.22805 0.59307,-0.46952 0.86137,-0.73287 0.0635,-0.0671 0.12002,-0.1412 0.19063,-0.20828 0.27535,-0.28947 0.53658,-0.58601 0.76958,-0.90866 0.0424,-0.0515 0.0847,-0.11438 0.12708,-0.16804 0.24711,-0.34949 0.47305,-0.71945 0.67073,-1.10142 0.0212,-0.0353 0.0424,-0.0741 0.0565,-0.11649 0.21888,-0.41656 0.40244,-0.85431 0.55777,-1.30476 0,-0.007 0,-0.007 0.007,-0.0134 0.62837,-0.18851 1.24968,-0.28312 1.87806,-0.28312 0.42362,0 0.83312,0.0544 1.23556,0.1278 0.12709,0.0205 0.24005,0.0544 0.36008,0.0833 0.29653,0.0671 0.58601,0.15886 0.86136,0.26688 0.11297,0.0402 0.21887,0.0741 0.31772,0.11508 0.37419,0.16804 0.73427,0.35584 1.07317,0.5846 l 0.0141,0.007 c 0.29654,0.20122 0.57189,0.4441 0.83312,0.69898 0.25417,0.24217 0.48717,0.50481 0.69898,0.78087 0.0777,0.0868 0.15533,0.16874 0.21887,0.26406 0.22593,0.32124 0.42362,0.66438 0.59307,1.02092 0.0282,0.0621 0.0706,0.12286 0.0988,0.18146 0.17651,0.40385 0.31065,0.82111 0.40244,1.25038 0.0141,0.0275 0.0212,0.0565 0.0282,0.0882 0.0918,0.43774 0.1412,0.89526 0.14827,1.35206 l -0.0353,0.4794 c -0.0494,1.00116 -0.3389,1.94442 -0.77664,2.79872 -0.0141,0.0318 -0.0353,0.0734 -0.0565,0.10591 z m 4.89283,-17.2082 -0.007,0.006 c -0.0212,0.13485 -0.0706,0.26335 -0.10591,0.39679 -0.0565,0.23582 -0.12003,0.47093 -0.19769,0.69333 -0.0706,0.18216 -0.15533,0.35655 -0.24005,0.53094 -0.0706,0.16239 -0.15533,0.33042 -0.24005,0.48504 -0.0988,0.18145 -0.21182,0.35655 -0.33184,0.52459 -0.0847,0.13414 -0.18357,0.269 -0.28948,0.39679 -0.13414,0.16309 -0.26829,0.32266 -0.41656,0.47799 -0.11296,0.12073 -0.24711,0.22805 -0.37419,0.34242 -0.14827,0.13556 -0.29654,0.269 -0.45187,0.39044 -0.28947,0.21534 -0.58601,0.41021 -0.90372,0.57895 -0.0918,0.0466 -0.18357,0.0734 -0.2683,0.12073 -0.27535,0.1285 -0.5507,0.24288 -0.83312,0.33678 -0.1059,0.0332 -0.21887,0.053 -0.32477,0.0868 -0.3389,0.0876 -0.68486,0.16874 -1.04493,0.20899 -0.0353,-0.0205 -0.0706,-0.0332 -0.0988,-0.0537 -0.66368,-0.37703 -1.36971,-0.67992 -2.12517,-0.89455 -0.0988,-0.0275 -0.20475,-0.0544 -0.3036,-0.0812 -0.28241,-0.0678 -0.56483,-0.12779 -0.86136,-0.16874 -0.1059,-0.0198 -0.21181,-0.0395 -0.31771,-0.053 -0.38126,-0.0409 -0.75546,-0.0741 -1.14378,-0.0741 -0.007,0 -0.0141,0 -0.0212,0 -0.63543,-0.47799 -1.1579,-1.04282 -1.59564,-1.68178 l -0.0847,-0.14121 c -0.54365,-0.84865 -0.88255,-1.7898 -1.01669,-2.79237 l -0.0212,-0.16097 c -0.0282,-0.24217 -0.0353,-0.4907 -0.0353,-0.73357 0,-3.80059 3.08537,-6.88879 6.8909,-6.88879 3.79141,0 6.88385,3.0882 6.88385,6.88879 0,0.42432 -0.0494,0.84794 -0.12003,1.25815 z m 12.66627,-14.96159 c 3.31837,-4.40002 5.35881,-10.21845 5.35881,-16.60948 h -2.75354 c 0,11.84656 -7.64636,21.52066 -17.17784,21.99864 -1.08023,-0.63331 -2.29461,-1.06399 -3.58666,-1.23838 -0.62837,-4.70855 -4.65983,-8.36228 -9.5456,-8.36228 -3.00771,0 -5.7683,1.41277 -7.57575,3.70668 -1.75803,-2.25366 -4.49745,-3.70668 -7.58282,-3.70668 -5.31645,0 -9.64445,4.32587 -9.64445,9.64726 0,2.11952 0.69898,4.13101 1.9416,5.77184 -4.27151,1.00186 -7.44867,4.82364 -7.44867,9.38533 0,3.01971 1.39795,5.71747 3.5796,7.48044 -3.69257,1.35841 -6.33314,4.89706 -6.33314,9.04785 0,1.64153 0.4095,3.21599 1.1932,4.63582 -2.3864,1.75521 -3.9538,4.5737 -3.9538,7.76216 0,5.32138 4.328,9.64726 9.65151,9.64726 3.45251,0 6.46728,-1.82863 8.18295,-4.55958 1.61682,1.16285 3.57959,1.8011 5.59179,1.8011 3.86202,0 7.19451,-2.28685 8.7266,-5.57062 1.51092,0.9355 3.2407,1.43961 5.05521,1.43961 4.27858,0 7.92172,-2.81779 9.17846,-6.69322 1.39795,0.76888 2.97241,1.18403 4.59629,1.18403 5.31645,0 9.63739,-4.32588 9.63739,-9.64656 0,-2.09269 -0.67074,-4.03005 -1.80746,-5.61087 2.77472,-1.73402 4.56805,-4.80951 4.56805,-8.16671 0,-5.31433 -4.28563,-9.67339 -9.64444,-9.63385 v -0.006 c 0,-2.21978 -0.76252,-4.26445 -2.02632,-5.89328 3.33955,-0.68626 6.4108,-2.33415 9.00195,-4.70925 0.90372,9.03513 8.55715,16.11243 17.82739,16.11243 h 1.36971 v -1.37959 c 0,-9.36344 -7.21568,-17.05288 -16.38002,-17.83375 v 0"
       style="fill:#231f20;fill-opacity:1;fill-rule:nonzero;stroke:none;stroke-width:0.07060353"
       id="path126"
       inkscape:connector-curvature="0" />
    <path
       d="m 128.49686,129.96657 c 7.20156,0.68556 12.94868,6.43763 13.6406,13.64272 -7.20862,-0.68626 -12.95575,-6.43763 -13.6406,-13.64272 z m -2.8312,20.59858 c 0,2.59751 -1.48268,4.9712 -3.77023,6.13757 -0.0212,-0.0226 -0.0494,-0.036 -0.0777,-0.0494 -0.77664,-0.58319 -1.63801,-1.05623 -2.56997,-1.3923 -0.0635,-0.0205 -0.12709,-0.0409 -0.18357,-0.0593 -0.43774,-0.14827 -0.88961,-0.26406 -1.34853,-0.34455 -0.0847,-0.012 -0.17651,-0.0268 -0.26123,-0.0402 -0.46599,-0.0678 -0.94609,-0.11297 -1.42619,-0.11297 -0.0353,0 -0.16239,0.005 -0.31772,0.0254 -0.38126,0.0134 -0.76252,0.0417 -1.15084,0.10097 -0.007,-0.0332 -0.007,-0.0593 -0.0141,-0.0875 -0.0494,-0.36361 -0.12708,-0.72016 -0.21181,-1.06965 -0.0212,-0.0607 -0.0282,-0.12002 -0.0494,-0.18639 -0.23299,-0.83665 -0.57895,-1.61682 -1.00963,-2.34333 -0.0282,-0.0403 -0.0424,-0.0805 -0.0706,-0.12073 -0.23299,-0.36291 -0.47305,-0.72016 -0.74134,-1.04988 0.0353,-0.0198 0.0635,-0.0403 0.10591,-0.053 0.30359,-0.10802 0.58601,-0.2344 0.86136,-0.37702 0.0424,-0.0205 0.0847,-0.0402 0.12709,-0.0607 0.30359,-0.16168 0.59307,-0.32972 0.8896,-0.51823 0,0 0.007,-0.006 0.0141,-0.006 1.85687,-1.23768 3.26189,-3.0882 3.9185,-5.26702 3.94674,-0.24288 7.28628,2.94628 7.28628,6.87466 z m -9.63739,20.66566 c -1.49679,0 -2.9371,-0.4907 -4.13737,-1.38313 0,-0.008 0,-0.0155 0,-0.0226 0,-0.45751 -0.0494,-0.9009 -0.1059,-1.33864 -0.0141,-0.0784 -0.0212,-0.16027 -0.0424,-0.24217 -0.15533,-0.94821 -0.45186,-1.84769 -0.87548,-2.68435 l -0.0212,-0.0402 c -0.21887,-0.43633 -0.47305,-0.8543 -0.75546,-1.25109 l -0.007,-0.007 c 0.66368,-0.41021 1.25675,-0.9009 1.79333,-1.45161 0.0918,-0.0953 0.18357,-0.19628 0.27536,-0.28947 0.20475,-0.23653 0.38832,-0.47234 0.57894,-0.71945 0.0847,-0.10873 0.16239,-0.21464 0.24006,-0.33043 0.21181,-0.30853 0.4095,-0.63967 0.57189,-0.96868 0.1059,-0.19557 0.19769,-0.40385 0.28241,-0.60578 0.0635,-0.15462 0.13415,-0.31489 0.19769,-0.47798 0.0918,-0.24853 0.16945,-0.48928 0.24005,-0.75334 0.0141,-0.0402 0.0212,-0.0741 0.0424,-0.11438 0.0635,-0.27535 0.14121,-0.54365 0.19063,-0.82747 0.50835,-0.13415 1.15084,-0.269 1.5321,-0.269 0.45186,0 0.90373,0.0537 1.33441,0.13485 0.18357,0.0402 0.36714,0.10732 0.55071,0.16098 0.23299,0.0678 0.46598,0.12779 0.69897,0.21534 0.21887,0.0939 0.42362,0.21534 0.63543,0.33113 0.16945,0.0861 0.34596,0.16662 0.50835,0.27606 0.21887,0.1412 0.42362,0.31418 0.62837,0.48999 1.5321,1.25744 2.53467,3.1475 2.53467,5.28043 0,3.80059 -3.09244,6.88808 -6.89091,6.88808 z m -13.77475,5.5099 c -1.55327,0 -3.02183,-0.50906 -4.22915,-1.45161 0,-0.0282 0,-0.0558 0.007,-0.0819 0.0494,-0.40386 0.0847,-0.80771 0.0847,-1.21791 0,-0.31631 -0.0141,-0.63049 -0.0494,-0.94186 -0.007,-0.0875 -0.0212,-0.16168 -0.0353,-0.24852 -0.0282,-0.22734 -0.0565,-0.45822 -0.0988,-0.68556 -0.0212,-0.0819 -0.0424,-0.16239 -0.0635,-0.24288 -0.0424,-0.2224 -0.0988,-0.44409 -0.16944,-0.65731 -0.0212,-0.0812 -0.0424,-0.15533 -0.0706,-0.22947 -0.0777,-0.21463 -0.14827,-0.43068 -0.233,-0.64602 -0.0353,-0.0734 -0.0635,-0.1405 -0.0988,-0.21463 -0.0847,-0.20899 -0.18356,-0.40527 -0.28947,-0.60719 -0.0353,-0.0805 -0.0847,-0.15463 -0.12709,-0.22876 -0.0988,-0.18216 -0.20475,-0.35655 -0.32477,-0.53023 -0.0494,-0.089 -0.11297,-0.17581 -0.16945,-0.26335 -0.10591,-0.14827 -0.21181,-0.28948 -0.32478,-0.43139 -0.0847,-0.10732 -0.16239,-0.20828 -0.24711,-0.3156 -0.0282,-0.0332 -0.0565,-0.0657 -0.0918,-0.10732 0.0635,-0.16662 0.14121,-0.32971 0.21887,-0.49069 l 0.15533,-0.31489 c 0.66367,-1.36124 1.77921,-2.47819 3.1348,-3.14398 l 0.36008,-0.18145 c 0.0988,-0.0403 0.20475,-0.0868 0.30359,-0.11932 0.21181,-0.0798 0.43774,-0.14262 0.65662,-0.19628 0.11296,-0.0261 0.23298,-0.0607 0.35301,-0.0812 0.19063,-0.0402 0.40244,-0.0671 0.60719,-0.0861 0.12709,-0.0141 0.26124,-0.0282 0.39538,-0.0353 0.19769,-0.006 0.38832,-0.006 0.57895,0 0.26829,0.007 0.52247,0.0424 0.77664,0.0812 0.27535,0.0402 0.54365,0.0953 0.80488,0.16945 0.20475,0.053 0.39538,0.11367 0.58601,0.18075 0.18357,0.0671 0.36008,0.14756 0.53659,0.22805 0.19769,0.10096 0.39538,0.20828 0.59307,0.32336 0.12708,0.0805 0.26829,0.14756 0.38832,0.23511 0.28241,0.19487 0.53658,0.41021 0.79075,0.64602 0.25418,0.24429 0.48011,0.51188 0.69898,0.78723 0.0706,0.0946 0.16239,0.18287 0.22593,0.27606 0.18357,0.257 0.32478,0.53165 0.46598,0.807 0.0777,0.14121 0.16239,0.269 0.21888,0.4095 0.12002,0.26406 0.18356,0.53871 0.26829,0.81477 0.0494,0.16944 0.12002,0.32971 0.16239,0.50481 0.0847,0.45892 0.1412,0.92844 0.1412,1.39936 0,3.79989 -3.09949,6.88808 -6.8909,6.88808 z m -13.78181,4.13736 c -1.65918,0 -3.21952,-0.5853 -4.4692,-1.65495 0.007,-0.0268 0.007,-0.0522 0.0212,-0.0805 0.0847,-0.3283 0.14827,-0.65943 0.19769,-1.00257 0.0141,-0.0741 0.0282,-0.15462 0.0353,-0.23511 0.0424,-0.37702 0.0777,-0.76675 0.0777,-1.16425 0,-0.48363 -0.0494,-0.96162 -0.11296,-1.42619 -0.0141,-0.0861 -0.0282,-0.1751 -0.0424,-0.26194 -0.0777,-0.45751 -0.19769,-0.90726 -0.3389,-1.3457 -0.0212,-0.0593 -0.0424,-0.12073 -0.0706,-0.18145 -0.32478,-0.9355 -0.79782,-1.79616 -1.38383,-2.57703 -0.007,-0.0134 -0.0141,-0.0247 -0.0282,-0.0381 0.0847,-0.15674 0.14121,-0.31772 0.24005,-0.46669 0.0353,-0.0734 0.0777,-0.14756 0.12709,-0.21534 0.24005,-0.36997 0.50834,-0.71239 0.819,-1.02234 0.0212,-0.0261 0.0494,-0.0466 0.0635,-0.0671 0.32477,-0.32266 0.67073,-0.61213 1.05905,-0.86772 l 0.007,-0.005 c 0.40244,-0.26405 0.83312,-0.49281 1.29205,-0.66791 l 0.0988,-0.0395 c 0.3742,-0.14827 0.76958,-0.25629 1.17202,-0.33042 0.1765,-0.0339 0.33889,-0.0537 0.49422,-0.0734 0.24711,-0.0268 0.49422,-0.0544 0.74134,-0.0544 0.41656,0 0.81194,0.0544 1.20732,0.12144 0.12708,0.0198 0.24711,0.0473 0.3742,0.0805 0.28947,0.0678 0.57895,0.1638 0.8543,0.26194 0.0988,0.041 0.20475,0.0678 0.30359,0.11649 0.76958,0.33466 1.46856,0.80559 2.06163,1.38383 0.24005,0.23582 0.45186,0.49846 0.64955,0.76746 0.0706,0.0939 0.16945,0.18216 0.24005,0.28241 0.15533,0.23017 0.2683,0.47799 0.39538,0.72793 0.49423,0.9475 0.80488,2.00514 0.80488,3.1468 0,0.41726 -0.0565,0.82041 -0.12709,1.21791 -0.0141,0.0819 -0.0212,0.16804 -0.0424,0.24852 -0.67779,3.09526 -3.43133,5.42235 -6.72145,5.42235 z m -13.77474,2.75142 c -3.79847,0 -6.89091,-3.0882 -6.89091,-6.88878 0,-2.75142 1.63094,-5.11029 3.96792,-6.21523 0.18357,-0.0819 0.36714,-0.15533 0.55071,-0.2224 0.18357,-0.0678 0.3742,-0.1278 0.57189,-0.18004 0.21887,-0.0558 0.4448,-0.11579 0.65661,-0.15604 0.14121,-0.0205 0.28241,-0.0205 0.41656,-0.041 0.91785,-0.0861 1.85687,-0.005 2.73942,0.26265 0.0847,0.0268 0.16944,0.0537 0.24711,0.0819 0.26123,0.0861 0.50834,0.19416 0.75546,0.31559 0.1412,0.0671 0.28241,0.1405 0.41656,0.2217 0.19063,0.10873 0.3742,0.21463 0.55777,0.34242 0.20475,0.14827 0.40244,0.31702 0.586,0.49352 0.10591,0.0918 0.22594,0.17228 0.32478,0.27536 0.13415,0.1412 0.24711,0.30006 0.3742,0.44904 0.16945,0.20828 0.34596,0.41868 0.49422,0.64602 0.0988,0.16097 0.18357,0.32972 0.2683,0.49775 0.12002,0.21534 0.24711,0.42574 0.33183,0.65238 0.0918,0.21534 0.14827,0.45045 0.21888,0.68627 0.0494,0.18851 0.12708,0.37137 0.16238,0.56482 0.0847,0.42363 0.13415,0.87478 0.13415,1.32523 0,0.43704 -0.0494,0.86137 -0.13415,1.28005 -0.0353,0.22734 -0.11296,0.44903 -0.17651,0.67073 -0.0777,0.23581 -0.12708,0.4794 -0.22593,0.70674 l -0.0141,0.0339 c -1.04493,2.47042 -3.48781,4.19738 -6.33313,4.19738 z m -3.27601,-15.9571 c -0.56483,-1.01599 -0.86136,-2.14423 -0.86136,-3.32966 0,-3.79424 3.09243,-6.88879 6.8909,-6.88879 1.82157,0 3.45958,0.72651 4.69514,1.8837 0.26123,0.23723 0.4801,0.50411 0.69897,0.78017 0.0706,0.0876 0.15533,0.16804 0.21887,0.26264 0.233,0.32266 0.41657,0.6658 0.58601,1.01599 0.0353,0.0664 0.0706,0.12214 0.10591,0.18992 0.16945,0.39538 0.30359,0.819 0.39538,1.24263 0.007,0.0339 0.0282,0.0607 0.0353,0.0946 0.0918,0.46527 0.14827,0.94114 0.14827,1.41913 0,0.32266 -0.0282,0.64531 -0.0777,0.9835 -0.69898,0.34173 -1.34147,0.78724 -1.93454,1.28499 -0.11297,0.0925 -0.24005,0.18004 -0.34596,0.28312 -0.19063,0.16592 -0.36008,0.3629 -0.52952,0.54294 -0.15533,0.16098 -0.3036,0.31772 -0.44481,0.48364 -0.1412,0.17509 -0.26829,0.3636 -0.39538,0.54505 -0.0988,0.14192 -0.21887,0.27606 -0.31771,0.43068 -0.0212,-0.0268 -0.0565,-0.0402 -0.0918,-0.0586 -0.3389,-0.23722 -0.68486,-0.45327 -1.04494,-0.63896 -0.11296,-0.0558 -0.22593,-0.10943 -0.33183,-0.1638 -0.32478,-0.14756 -0.64955,-0.28877 -0.98845,-0.40314 -0.0777,-0.0268 -0.15533,-0.0607 -0.23299,-0.0854 -0.40244,-0.12285 -0.819,-0.21534 -1.24263,-0.28948 -0.1059,-0.0219 -0.21181,-0.0424 -0.32477,-0.0551 -0.4448,-0.0614 -0.88961,-0.10167 -1.33441,-0.10167 -0.52246,0 -1.02375,0.0544 -1.51091,0.1278 -0.0847,0.0134 -0.16239,0.0289 -0.24712,0.0409 -0.4801,0.0875 -0.95314,0.21534 -1.41913,0.37702 -0.0353,0.0127 -0.0635,0.0127 -0.0988,0.0261 z m 1.89924,-19.85795 c 0,-3.802 3.08537,-6.88949 6.88384,-6.88949 0.40244,0 0.80488,0.0473 1.18614,0.11508 0.11297,0.0198 0.21887,0.0402 0.3389,0.0664 0.34595,0.0812 0.69191,0.18216 1.01669,0.31701 0.0918,0.0332 0.18357,0.0727 0.28241,0.11367 0.34596,0.16239 0.68486,0.33678 0.99551,0.55212 l 0.0424,0.0198 c 0.64955,0.44409 1.20732,1.01598 1.68037,1.64789 0.0988,0.1412 0.20475,0.28947 0.28947,0.43138 0.14827,0.22099 0.26123,0.4561 0.38126,0.69262 0.0635,0.13415 0.12709,0.27606 0.18357,0.4095 0.11296,0.28312 0.19769,0.56554 0.26123,0.86207 0.0353,0.12144 0.0777,0.23511 0.0988,0.3629 0.0847,0.41657 0.13415,0.85501 0.13415,1.29911 0,0.42362 -0.0494,0.83312 -0.12709,1.24404 -0.0141,0.0671 -0.0212,0.1412 -0.0353,0.20898 -0.0777,0.34454 -0.19063,0.67215 -0.31065,0.9948 -0.0494,0.13627 -0.10591,0.27042 -0.16945,0.40386 -0.0847,0.1878 -0.18357,0.35655 -0.28948,0.53093 -0.1059,0.18922 -0.20475,0.38409 -0.32477,0.5606 -0.12003,0.15956 -0.25417,0.30077 -0.38126,0.44904 -0.26123,0.31559 -0.54365,0.59871 -0.86136,0.86136 -0.14827,0.1292 -0.28948,0.26406 -0.45187,0.37631 -0.16945,0.12144 -0.36713,0.2217 -0.55776,0.32972 -1.00257,0.57401 -2.14635,0.92985 -3.38191,0.92985 -3.79847,0 -6.88385,-3.09455 -6.88385,-6.88949 z m 12.39092,-22.04595 c 2.83826,0 5.27408,1.72202 6.32607,4.17055 0.16945,0.38337 0.28242,0.78087 0.38126,1.18402 0.0141,0.0487 0.0282,0.0882 0.0424,0.13485 0.0988,0.45751 0.14121,0.92844 0.14121,1.39936 0,0.47093 -0.0424,0.93479 -0.14121,1.3923 -0.0141,0.0544 -0.0282,0.0946 -0.0424,0.14192 -0.0918,0.40314 -0.21181,0.79994 -0.38126,1.18331 -0.50128,1.17061 -1.3344,2.17318 -2.36522,2.89969 -0.0706,0.0544 -0.1412,0.10096 -0.21887,0.14827 -0.31771,0.20828 -0.64955,0.38973 -0.99551,0.54435 -0.0635,0.0275 -0.12002,0.0473 -0.19063,0.0748 -0.79075,0.3156 -1.65212,0.50411 -2.55584,0.50411 -0.20475,0 -0.4095,-0.0134 -0.60719,-0.0339 -0.0353,-0.0205 -0.0706,-0.0332 -0.10591,-0.0537 -0.16239,-0.10096 -0.3389,-0.19487 -0.52247,-0.28312 -0.0918,-0.0466 -0.19062,-0.0868 -0.28241,-0.13344 -0.18357,-0.0812 -0.36714,-0.16168 -0.55071,-0.22946 -0.0847,-0.0332 -0.18357,-0.0671 -0.27535,-0.10097 -0.19769,-0.0741 -0.40244,-0.13414 -0.61425,-0.1878 -0.0706,-0.0205 -0.14827,-0.0402 -0.21887,-0.0607 -0.22593,-0.0537 -0.45893,-0.10803 -0.69192,-0.14756 -0.0212,0 -0.0424,-0.007 -0.0635,-0.0141 -1.85687,-1.29204 -2.95122,-3.38402 -2.95122,-5.64404 0,-3.8013 3.08537,-6.88879 6.88384,-6.88879 z m 9.08667,3.63961 c 1.18614,-2.22684 3.51606,-3.63961 6.0719,-3.63961 3.36779,0 6.17781,2.42876 6.77794,5.62427 -0.0565,0.006 -0.1059,0.0261 -0.14826,0.0339 -0.43068,0.0741 -0.84725,0.16733 -1.25675,0.29583 -0.0212,0.006 -0.0494,0.0198 -0.0777,0.0268 -0.38126,0.12779 -0.75545,0.28383 -1.11553,0.45045 -0.0988,0.041 -0.18357,0.0868 -0.2683,0.12779 -0.37419,0.19558 -0.73427,0.39609 -1.08023,0.63261 -0.0353,0.0268 -0.0706,0.06 -0.11297,0.0875 -0.31065,0.21534 -0.60719,0.45681 -0.8896,0.7131 -0.0706,0.06 -0.14121,0.12073 -0.21181,0.1878 -0.29654,0.28948 -0.57895,0.59237 -0.84018,0.90867 -0.0424,0.0466 -0.0777,0.10026 -0.10591,0.14756 -0.23299,0.28948 -0.4448,0.59872 -0.63543,0.91502 -0.0494,0.0741 -0.0918,0.15462 -0.14121,0.23582 -0.21181,0.3629 -0.38832,0.73286 -0.5507,1.1233 -0.0282,0.0671 -0.0494,0.13415 -0.0847,0.20828 -0.12709,0.34313 -0.24006,0.69262 -0.32478,1.05623 -0.0212,0.0607 -0.0424,0.10732 -0.0565,0.16804 -0.72016,-0.5373 -1.51092,-0.96162 -2.3511,-1.27722 -0.0777,-0.0346 -0.15532,-0.0607 -0.23299,-0.0883 -0.40244,-0.13486 -0.79782,-0.24853 -1.20732,-0.33678 -0.0777,-0.0127 -0.15533,-0.0332 -0.23299,-0.0466 -0.0847,-0.0141 -0.16945,-0.0473 -0.25417,-0.0607 -0.26124,-0.32336 -0.49423,-0.65944 -0.6778,-1.00822 0.0141,-0.0275 0.0212,-0.0607 0.0282,-0.0946 0.15533,-0.45751 0.28241,-0.92208 0.3742,-1.40572 0.0141,-0.0812 0.0212,-0.16168 0.0353,-0.24287 0.0777,-0.48434 0.13414,-0.98139 0.13414,-1.49327 0,-0.51117 -0.0565,-1.00892 -0.12708,-1.49962 -0.0141,-0.0812 -0.0282,-0.16168 -0.0424,-0.24287 -0.0918,-0.48434 -0.21887,-0.94821 -0.3742,-1.40572 -0.007,-0.0339 -0.0141,-0.0678 -0.0212,-0.10096 z m -4.95637,18.40634 c 0,-0.43139 -0.0282,-0.84866 -0.0847,-1.26522 -0.0141,-0.0875 -0.0282,-0.18215 -0.0424,-0.2697 -0.0635,-0.39609 -0.14826,-0.78017 -0.26123,-1.16355 0,-0.0134 -0.007,-0.0332 -0.0141,-0.053 -0.12003,-0.41868 -0.27535,-0.82182 -0.45892,-1.21862 -0.0212,-0.0537 -0.0494,-0.10732 -0.0777,-0.16803 -0.16239,-0.34243 -0.34596,-0.67921 -0.55071,-1.00893 -0.0141,-0.0275 -0.0353,-0.0671 -0.0565,-0.10096 0.19769,-0.28947 0.43068,-0.56554 0.68485,-0.83383 0.0706,-0.0275 0.14121,-0.0671 0.21888,-0.0939 0.16238,-0.0607 0.31771,-0.12779 0.4801,-0.20192 0.12002,-0.0544 0.24711,-0.11509 0.3742,-0.18216 0.15533,-0.0741 0.31065,-0.16168 0.45892,-0.24853 0.12003,-0.0678 0.24005,-0.1412 0.35302,-0.21534 0.14827,-0.0946 0.28947,-0.18922 0.42362,-0.28241 0.12709,-0.0875 0.24711,-0.1758 0.36008,-0.26971 0.12708,-0.10096 0.24711,-0.19557 0.36713,-0.29583 0.0635,-0.0537 0.12003,-0.10096 0.18358,-0.15462 0.90372,-0.24852 1.80745,-0.28241 2.67587,-0.16874 0.28947,0.0409 0.57189,0.0882 0.84724,0.1638 0.10591,0.0254 0.21181,0.0586 0.31772,0.0925 0.30359,0.0939 0.60719,0.20828 0.89666,0.34949 0.0494,0.0268 0.10591,0.0473 0.16239,0.0741 0.72722,0.36996 1.39089,0.87477 1.95572,1.49326 l 0.0918,0.0946 c 0.16945,0.1878 0.33184,0.38338 0.4801,0.59166 0.0212,0.12708 0.0494,0.25487 0.0777,0.37631 0.0565,0.26971 0.11297,0.52459 0.19063,0.78088 0.0635,0.21534 0.12709,0.43068 0.19769,0.6319 0.0635,0.16874 0.14121,0.32336 0.20475,0.48505 0.0706,0.15532 0.14121,0.30995 0.21887,0.46386 0.0847,0.16804 0.16239,0.32972 0.26124,0.4914 0.0212,0.0332 0.0353,0.0734 0.0565,0.10732 0.0212,0.20899 0.0353,0.41091 0.0353,0.61919 0,0.46387 -0.0565,0.91432 -0.14827,1.35841 l -0.0635,0.28312 c -0.35302,1.4262 -1.15084,2.69071 -2.25225,3.61914 -0.0353,0.0268 -0.0706,0.0621 -0.11297,0.0875 -0.0847,0.0734 -0.19063,0.1278 -0.28947,0.19628 -0.21181,-0.20969 -0.43069,-0.40526 -0.65662,-0.59307 -0.22593,-0.18923 -0.47304,-0.37068 -0.7131,-0.53871 l -0.0212,-0.006 c -0.77664,-0.53165 -1.62388,-0.9355 -2.51348,-1.21156 0,-0.006 0,-0.006 -0.007,-0.006 -0.2683,-0.0805 -0.53659,-0.14827 -0.81195,-0.20899 -0.0424,-0.006 -0.0777,-0.0177 -0.12002,-0.0318 -0.25417,-0.0487 -0.50835,-0.0819 -0.76252,-0.11508 -0.0706,-0.008 -0.12709,-0.0212 -0.19769,-0.0275 -0.32478,-0.0332 -0.64249,-0.0544 -0.97433,-0.0544 -0.45186,0 -0.89666,0.048 -1.33441,0.10732 -0.0494,0.008 -0.1059,0 -0.16238,0.0141 0.007,-0.0473 0.007,-0.0939 0.0141,-0.14121 0.0635,-0.4441 0.0988,-0.89455 0.0988,-1.35135 z m 1.98396,17.14183 c -0.28947,-0.10873 -0.58601,-0.20193 -0.8896,-0.28241 -0.0847,-0.0219 -0.16239,-0.0424 -0.24711,-0.0621 -0.28242,-0.0671 -0.57189,-0.11438 -0.86137,-0.15957 -0.0847,-0.009 -0.16239,-0.0282 -0.25417,-0.0424 -0.36008,-0.0402 -0.73428,-0.0671 -1.10142,-0.0671 -0.39537,0 -0.79782,0.0332 -1.23556,0.0939 -0.0494,-0.0403 -0.0918,-0.0734 -0.1412,-0.10802 0,-0.3156 -0.0212,-0.62484 -0.0494,-0.93479 -0.0212,-0.20828 -0.0565,-0.4095 -0.0918,-0.61214 -0.0141,-0.10096 -0.0282,-0.19274 -0.0424,-0.28876 -0.0565,-0.25418 -0.11297,-0.50482 -0.19063,-0.75193 -0.007,-0.0424 -0.0141,-0.0883 -0.0282,-0.13627 -0.0777,-0.25558 -0.16945,-0.51187 -0.2683,-0.76746 -0.007,-0.0261 -0.0212,-0.06 -0.0282,-0.0868 -0.1059,-0.24852 -0.21181,-0.49775 -0.34595,-0.73851 -0.0141,-0.029 -0.0282,-0.0621 -0.0424,-0.089 -0.12003,-0.23582 -0.25418,-0.45751 -0.38832,-0.67991 -0.0282,-0.0402 -0.0494,-0.0805 -0.0706,-0.12073 -0.13415,-0.20828 -0.28242,-0.4088 -0.43068,-0.60578 -0.0424,-0.0466 -0.0777,-0.10026 -0.11297,-0.14756 -0.15533,-0.18852 -0.31066,-0.3622 -0.46598,-0.54506 -0.0353,-0.0318 -0.0706,-0.0741 -0.10591,-0.11226 0.0847,-0.49352 0.21887,-0.98422 0.40244,-1.44879 0.38832,-0.20687 0.7484,-0.4568 1.10142,-0.71239 l 0.0918,-0.0748 c 0.69191,-0.52387 1.31322,-1.14307 1.84275,-1.8364 0.0212,-0.0339 0.0494,-0.0671 0.0706,-0.0918 0.25417,-0.35019 0.50128,-0.70674 0.70603,-1.08517 0.0353,-0.0134 0.0706,-0.0268 0.0988,-0.0402 0.35302,-0.14121 0.72016,-0.25558 1.09436,-0.32972 0.0635,-0.0127 0.12708,-0.0205 0.19063,-0.0339 0.38832,-0.0671 0.79076,-0.11367 1.1932,-0.11367 0.43774,0 0.86842,0.053 1.27792,0.12708 0.0565,0.0141 0.11297,0.0205 0.16239,0.0268 0.39538,0.0897 0.77664,0.20828 1.14378,0.35655 0.0635,0.0275 0.12002,0.0544 0.18357,0.0812 0.36007,0.15603 0.69897,0.34313 1.03081,0.55918 0.0494,0.0339 0.0918,0.0671 0.14826,0.10661 0.28948,0.20334 0.55777,0.43068 0.81195,0.67285 0.0494,0.0473 0.0988,0.0805 0.1412,0.1278 0.24712,0.24217 0.45186,0.51823 0.65661,0.79429 0.11297,0.15462 0.20475,0.31559 0.31066,0.47233 0.12709,0.20617 0.24005,0.41515 0.3389,0.63755 0.0777,0.14898 0.1412,0.29795 0.20475,0.45045 0.0988,0.26265 0.18357,0.53094 0.24711,0.807 0.0353,0.12779 0.0777,0.257 0.1059,0.39044 0.0777,0.41727 0.12709,0.84018 0.12709,1.27792 0,0.41798 -0.0494,0.82748 -0.12709,1.24616 -0.0424,0.18003 -0.11296,0.36996 -0.16238,0.55706 -0.0777,0.25558 -0.13415,0.51117 -0.24711,0.76675 -1.5674,0.86843 -2.85239,2.17318 -3.72787,3.76882 -0.29654,0.12638 -0.57895,0.22664 -0.84724,0.30783 -0.33184,-0.17439 -0.6778,-0.32972 -1.02375,-0.46387 -0.0565,-0.0205 -0.10591,-0.0409 -0.15533,-0.0593 z m 19.19004,-5.56497 c -0.12708,0.22876 -0.26829,0.44409 -0.41656,0.65944 -0.0494,0.06 -0.0918,0.12779 -0.14121,0.19486 -0.13414,0.1751 -0.27535,0.34525 -0.43068,0.50482 -0.0777,0.0805 -0.14826,0.16803 -0.23299,0.24852 -0.13414,0.13486 -0.28241,0.25629 -0.43068,0.38408 -0.10591,0.0798 -0.21181,0.16804 -0.31772,0.24853 -0.1412,0.10943 -0.30359,0.20193 -0.45892,0.30289 -0.12002,0.0734 -0.24005,0.15674 -0.36714,0.21534 -0.0353,0.0219 -0.0777,0.0332 -0.11296,0.0537 -0.0212,-0.0141 -0.0424,-0.0268 -0.0635,-0.0381 -0.7837,-0.58813 -1.65212,-1.05905 -2.57703,-1.38807 -0.0635,-0.0268 -0.12003,-0.0452 -0.18357,-0.0678 -0.43774,-0.14756 -0.88255,-0.26052 -1.34147,-0.34101 -0.0918,-0.0155 -0.17651,-0.0282 -0.26123,-0.0417 -0.46598,-0.0678 -0.94609,-0.11509 -1.42619,-0.11509 -0.50835,0 -1.00963,0.041 -1.51092,0.11509 0.007,-0.041 0.007,-0.0876 0.0141,-0.13485 0.0635,-0.45045 0.11297,-0.89949 0.11297,-1.35912 0,-0.37703 -0.0282,-0.74628 -0.0635,-1.10989 -0.0141,-0.12779 -0.0424,-0.24852 -0.0635,-0.36855 -0.0353,-0.24358 -0.0777,-0.4794 -0.13415,-0.71239 -0.0353,-0.14121 -0.0706,-0.27818 -0.10591,-0.41938 -0.0706,-0.22735 -0.1412,-0.45751 -0.22593,-0.67921 -0.0424,-0.11932 -0.0777,-0.23582 -0.12709,-0.34808 -0.1412,-0.33819 -0.28947,-0.66791 -0.46598,-0.9835 l -0.007,-0.0127 c 0.0777,-0.048 0.14121,-0.11509 0.20475,-0.17651 0.3036,-0.22805 0.59307,-0.46952 0.86137,-0.73287 0.0635,-0.0671 0.12002,-0.1412 0.19063,-0.20828 0.27535,-0.28947 0.53658,-0.58601 0.76958,-0.90866 0.0424,-0.0515 0.0847,-0.11438 0.12708,-0.16804 0.24711,-0.34949 0.47305,-0.71945 0.67073,-1.10142 0.0212,-0.0353 0.0424,-0.0741 0.0565,-0.11649 0.21888,-0.41656 0.40244,-0.85431 0.55777,-1.30476 0,-0.007 0,-0.007 0.007,-0.0134 0.62837,-0.18851 1.24968,-0.28312 1.87806,-0.28312 0.42362,0 0.83312,0.0544 1.23556,0.1278 0.12709,0.0205 0.24005,0.0544 0.36008,0.0833 0.29653,0.0671 0.58601,0.15886 0.86136,0.26688 0.11297,0.0402 0.21887,0.0741 0.31772,0.11508 0.37419,0.16804 0.73427,0.35584 1.07317,0.5846 l 0.0141,0.007 c 0.29654,0.20122 0.57189,0.4441 0.83312,0.69898 0.25417,0.24217 0.48717,0.50481 0.69898,0.78087 0.0777,0.0868 0.15533,0.16874 0.21887,0.26406 0.22593,0.32124 0.42362,0.66438 0.59307,1.02092 0.0282,0.0621 0.0706,0.12286 0.0988,0.18146 0.17651,0.40385 0.31065,0.82111 0.40244,1.25038 0.0141,0.0275 0.0212,0.0565 0.0282,0.0882 0.0918,0.43774 0.1412,0.89526 0.14827,1.35206 l -0.0353,0.4794 c -0.0494,1.00116 -0.3389,1.94442 -0.77664,2.79872 -0.0141,0.0318 -0.0353,0.0734 -0.0565,0.10591 z m 4.89283,-17.2082 -0.007,0.006 c -0.0212,0.13485 -0.0706,0.26335 -0.10591,0.39679 -0.0565,0.23582 -0.12003,0.47093 -0.19769,0.69333 -0.0706,0.18216 -0.15533,0.35655 -0.24005,0.53094 -0.0706,0.16239 -0.15533,0.33042 -0.24005,0.48504 -0.0988,0.18145 -0.21182,0.35655 -0.33184,0.52459 -0.0847,0.13414 -0.18357,0.269 -0.28948,0.39679 -0.13414,0.16309 -0.26829,0.32266 -0.41656,0.47799 -0.11296,0.12073 -0.24711,0.22805 -0.37419,0.34242 -0.14827,0.13556 -0.29654,0.269 -0.45187,0.39044 -0.28947,0.21534 -0.58601,0.41021 -0.90372,0.57895 -0.0918,0.0466 -0.18357,0.0734 -0.2683,0.12073 -0.27535,0.1285 -0.5507,0.24288 -0.83312,0.33678 -0.1059,0.0332 -0.21887,0.053 -0.32477,0.0868 -0.3389,0.0876 -0.68486,0.16874 -1.04493,0.20899 -0.0353,-0.0205 -0.0706,-0.0332 -0.0988,-0.0537 -0.66368,-0.37703 -1.36971,-0.67992 -2.12517,-0.89455 -0.0988,-0.0275 -0.20475,-0.0544 -0.3036,-0.0812 -0.28241,-0.0678 -0.56483,-0.12779 -0.86136,-0.16874 -0.1059,-0.0198 -0.21181,-0.0395 -0.31771,-0.053 -0.38126,-0.0409 -0.75546,-0.0741 -1.14378,-0.0741 -0.007,0 -0.0141,0 -0.0212,0 -0.63543,-0.47799 -1.1579,-1.04282 -1.59564,-1.68178 l -0.0847,-0.14121 c -0.54365,-0.84865 -0.88255,-1.7898 -1.01669,-2.79237 l -0.0212,-0.16097 c -0.0282,-0.24217 -0.0353,-0.4907 -0.0353,-0.73357 0,-3.80059 3.08537,-6.88879 6.8909,-6.88879 3.79141,0 6.88385,3.0882 6.88385,6.88879 0,0.42432 -0.0494,0.84794 -0.12003,1.25815 z m 12.66627,-14.96159 c 3.31837,-4.40002 5.35881,-10.21845 5.35881,-16.60948 h -2.75354 c 0,11.84656 -7.64636,21.52066 -17.17784,21.99864 -1.08023,-0.63331 -2.29461,-1.06399 -3.58666,-1.23838 -0.62837,-4.70855 -4.65983,-8.36228 -9.5456,-8.36228 -3.00771,0 -5.7683,1.41277 -7.57575,3.70668 -1.75803,-2.25366 -4.49745,-3.70668 -7.58282,-3.70668 -5.31645,0 -9.64445,4.32587 -9.64445,9.64726 0,2.11952 0.69898,4.13101 1.9416,5.77184 -4.27151,1.00186 -7.44867,4.82364 -7.44867,9.38533 0,3.01971 1.39795,5.71747 3.5796,7.48044 -3.69257,1.35841 -6.33314,4.89706 -6.33314,9.04785 0,1.64153 0.4095,3.21599 1.1932,4.63582 -2.3864,1.75521 -3.9538,4.5737 -3.9538,7.76216 0,5.32138 4.328,9.64726 9.65151,9.64726 3.45251,0 6.46728,-1.82863 8.18295,-4.55958 1.61682,1.16285 3.57959,1.8011 5.59179,1.8011 3.86202,0 7.19451,-2.28685 8.7266,-5.57062 1.51092,0.9355 3.2407,1.43961 5.05521,1.43961 4.27858,0 7.92172,-2.81779 9.17846,-6.69322 1.39795,0.76888 2.97241,1.18403 4.59629,1.18403 5.31645,0 9.63739,-4.32588 9.63739,-9.64656 0,-2.09269 -0.67074,-4.03005 -1.80746,-5.61087 2.77472,-1.73402 4.56805,-4.80951 4.56805,-8.16671 0,-5.31433 -4.28563,-9.67339 -9.64444,-9.63385 v -0.006 c 0,-2.21978 -0.76252,-4.26445 -2.02632,-5.89328 3.33955,-0.68626 6.4108,-2.33415 9.00195,-4.70925 0.90372,9.03513 8.55715,16.11243 17.82739,16.11243 h 1.36971 v -1.37959 c 0,-9.36344 -7.21568,-17.05288 -16.38002,-17.83375 z"
       style="fill:none;stroke:#231f20;stroke-width:1.23472154;stroke-linecap:butt;stroke-linejoin:miter;stroke-miterlimit:4;stroke-dasharray:none;stroke-opacity:1"
       id="path128"
       inkscape:connector-curvature="0" />
  </g>
</svg>
