<?xml version="1.0" encoding="UTF-8" standalone="no"?>
<!-- Created with Inkscape (http://www.inkscape.org/) -->

<svg
   xmlns:dc="http://purl.org/dc/elements/1.1/"
   xmlns:cc="http://creativecommons.org/ns#"
   xmlns:rdf="http://www.w3.org/1999/02/22-rdf-syntax-ns#"
   xmlns:svg="http://www.w3.org/2000/svg"
   xmlns="http://www.w3.org/2000/svg"
   xmlns:sodipodi="http://sodipodi.sourceforge.net/DTD/sodipodi-0.dtd"
   xmlns:inkscape="http://www.inkscape.org/namespaces/inkscape"
   width="210mm"
   height="297mm"
   viewBox="0 0 210 297"
   version="1.1"
   id="svg183"
   inkscape:version="0.92.1 r15371"
   sodipodi:docname="19.svg">
  <defs
     id="defs177" />
  <sodipodi:namedview
     id="base"
     pagecolor="#ffffff"
     bordercolor="#666666"
     borderopacity="1.0"
     inkscape:pageopacity="0.0"
     inkscape:pageshadow="2"
     inkscape:zoom="0.35"
     inkscape:cx="-97.142857"
     inkscape:cy="560"
     inkscape:document-units="mm"
     inkscape:current-layer="layer1"
     showgrid="false"
     inkscape:window-width="1920"
     inkscape:window-height="1043"
     inkscape:window-x="1920"
     inkscape:window-y="0"
     inkscape:window-maximized="1" />
  <metadata
     id="metadata180">
    <rdf:RDF>
      <cc:Work
         rdf:about="">
        <dc:format>image/svg+xml</dc:format>
        <dc:type
           rdf:resource="http://purl.org/dc/dcmitype/StillImage" />
        <dc:title></dc:title>
      </cc:Work>
    </rdf:RDF>
  </metadata>
  <g
     inkscape:label="Camada 1"
     inkscape:groupmode="layer"
     id="layer1">
    <path
       d="m 120.09565,143.09368 -9.59855,-0.70533 -3.62831,-8.97865 c -0.68839,-1.68601 -3.06208,-1.68601 -3.73281,0 l -3.629017,8.97865 -9.59714,0.70533 c -1.80745,0.13768 -2.54667,2.40617 -1.15366,3.57678 l 7.34488,6.24417 -2.3052,9.40863 c -0.42998,1.77144 1.47985,3.1821 3.02748,2.21907 l 8.170237,-5.10817 8.17094,5.10817 c 1.52928,0.96303 3.45675,-0.44763 3.02678,-2.21907 l -2.30521,-9.40863 7.34489,-6.24417 c 1.41066,-1.17061 0.67073,-3.4391 -1.13531,-3.57678 v 0"
       style="fill:#231f20;fill-opacity:1;fill-rule:nonzero;stroke:none;stroke-width:0.07060353"
       id="path110"
       inkscape:connector-curvature="0" />
    <path
       d="m 146.82165,153.57464 c -1.20732,1.65777 -2.45559,3.37273 -2.98088,5.33409 -0.54577,2.04256 -0.32195,4.20515 -0.10591,6.2936 0.22381,2.16965 0.43492,4.21574 -0.30077,5.48589 -0.75546,1.30829 -2.6554,2.15129 -4.66619,3.04725 -1.90347,0.84371 -3.87189,1.72202 -5.34186,3.18987 -1.46997,1.47067 -2.34545,3.4391 -3.19199,5.34469 -0.89313,2.01008 -1.73825,3.90861 -3.04442,4.66336 -0.60154,0.34949 -1.41136,0.51117 -2.54879,0.51117 -0.90937,0 -1.895,-0.10238 -2.9371,-0.2111 -1.10989,-0.11368 -2.2579,-0.233 -3.39603,-0.233 -1.09506,0 -2.04256,0.11297 -2.89828,0.34172 -1.96136,0.52247 -3.67562,1.77145 -5.33268,2.97806 -1.8018,1.31182 -3.50335,2.55373 -5.0764,2.55373 -1.57375,0 -3.276,-1.24191 -5.076385,-2.5502 -1.65848,-1.21014 -3.37203,-2.45912 -5.3341,-2.98159 -0.85501,-0.22875 -1.80321,-0.34172 -2.89757,-0.34172 -1.13883,0 -2.28614,0.11932 -3.39603,0.233 -1.04281,0.10872 -2.02844,0.2111 -2.9371,0.2111 -1.13813,0 -1.94795,-0.16168 -2.54808,-0.51117 -1.30758,-0.75475 -2.152,-2.65328 -3.04584,-4.66336 -0.84583,-1.90559 -1.72132,-3.87402 -3.19269,-5.34469 -1.46856,-1.46785 -3.43769,-2.34616 -5.34187,-3.18987 -2.01078,-0.89596 -3.90931,-1.73896 -4.66548,-3.04725 -0.73498,-1.27015 -0.52388,-3.31624 -0.30006,-5.48589 0.21675,-2.08845 0.43915,-4.25104 -0.10661,-6.29007 -0.52459,-1.96489 -1.77286,-3.67985 -2.98088,-5.33762 -1.31111,-1.79898 -2.5502,-3.49982 -2.5502,-5.07287 0,-1.57375 1.23909,-3.27742 2.5502,-5.07639 1.20802,-1.65778 2.45629,-3.37273 2.98088,-5.3341 0.54576,-2.04256 0.32336,-4.20514 0.10661,-6.2936 -0.22382,-2.16965 -0.43492,-4.21573 0.30006,-5.48589 0.75617,-1.30829 2.6547,-2.15129 4.66548,-3.04725 1.90418,-0.84371 3.87331,-1.72202 5.34187,-3.1934 1.47137,-1.46714 2.34686,-3.43557 3.19269,-5.34116 0.89384,-2.01078 1.73826,-3.90861 3.04584,-4.66336 0.60013,-0.34949 1.40995,-0.51117 2.54808,-0.51117 0.90866,0 1.89429,0.10238 2.9371,0.21111 1.10989,0.11295 2.2572,0.23299 3.39603,0.23299 1.09436,0 2.04115,-0.11297 2.89687,-0.34172 1.96207,-0.52247 3.67632,-1.77145 5.3348,-2.97806 1.800385,-1.31253 3.502635,-2.55373 5.076385,-2.55373 1.57305,0 3.2746,1.2412 5.0764,2.55373 1.65706,1.20661 3.37132,2.45559 5.33268,2.97806 0.85572,0.22874 1.80322,0.34172 2.89828,0.34172 1.13813,0 2.28614,-0.12004 3.39603,-0.23299 1.0421,-0.10873 2.02773,-0.21111 2.9371,-0.21111 1.13743,0 1.94725,0.16168 2.54879,0.51117 1.30617,0.75475 2.15129,2.65258 3.04442,4.66336 0.84725,1.90559 1.72202,3.87402 3.1927,5.34116 1.46926,1.47138 3.43768,2.34969 5.34256,3.1934 2.01009,0.89596 3.90932,1.73896 4.66619,3.04725 0.73428,1.27016 0.52317,3.31623 0.29936,5.48589 -0.21604,2.08846 -0.43986,4.25104 0.10591,6.2936 0.52529,1.96136 1.77356,3.67632 2.98088,5.3341 1.31181,1.79897 2.5509,3.50264 2.5509,5.07639 0,1.57305 -1.23909,3.27389 -2.5509,5.07287 z m 3.3699,2.45559 c 1.57023,-2.15553 3.35014,-4.60053 3.35014,-7.52846 0,-2.93146 -1.77991,-5.37646 -3.35014,-7.53199 -1.02728,-1.41136 -1.99878,-2.74435 -2.32285,-3.95803 -0.34737,-1.2984 -0.17227,-2.995 0.0134,-4.78693 0.269,-2.60738 0.57401,-5.56003 -0.83948,-8.00078 -1.43325,-2.4803 -4.16702,-3.69398 -6.58025,-4.76997 -1.62741,-0.72298 -3.16515,-1.40784 -4.08794,-2.32851 -0.92208,-0.9242 -1.60764,-2.46265 -2.33062,-4.08865 -1.07176,-2.41323 -2.28897,-5.147 -4.76645,-6.57884 -1.26239,-0.73074 -2.73588,-1.07317 -4.63653,-1.07317 -1.12472,0 -2.26426,0.12003 -3.36638,0.2337 -1.05058,0.10873 -2.04326,0.2111 -2.96676,0.2111 -0.72651,0 -1.3217,-0.0635 -1.82086,-0.19769 -1.21226,-0.32407 -2.54455,-1.29487 -3.95591,-2.32426 -2.15624,-1.57023 -4.59982,-3.348025 -7.53058,-3.348025 -2.93075,0 -5.375745,1.777795 -7.531275,3.348025 -1.41136,1.02939 -2.74506,2.00019 -3.95662,2.32426 -0.49846,0.13415 -1.09435,0.19769 -1.82016,0.19769 -0.9242,0 -1.91688,-0.10237 -2.96746,-0.2111 -1.10212,-0.11367 -2.24237,-0.2337 -3.36567,-0.2337 -1.90136,0 -3.37485,0.34243 -4.63724,1.07317 -2.47748,1.43184 -3.69327,4.16561 -4.76645,6.57884 -0.72298,1.626 -1.40783,3.16445 -2.33062,4.08865 -0.92279,0.92067 -2.45983,1.60553 -4.08794,2.32851 -2.41253,1.07599 -5.1463,2.28967 -6.58025,4.76997 -1.41349,2.44076 -1.10777,5.39341 -0.83877,8.00079 0.18568,1.79192 0.36007,3.48852 0.0127,4.78692 -0.32336,1.21368 -1.29486,2.54667 -2.32215,3.95803 -1.57092,2.15553 -3.35013,4.60053 -3.35013,7.53199 0,2.92793 1.77921,5.37293 3.35013,7.52846 1.02729,1.41064 1.99879,2.74435 2.32215,3.95803 0.34737,1.2984 0.17298,2.995 -0.0127,4.78692 -0.269,2.60739 -0.57472,5.56003 0.83877,8.00079 1.43395,2.4803 4.16772,3.69751 6.58025,4.76644 1.62811,0.72652 3.16515,1.41136 4.08794,2.33204 0.92279,0.9242 1.60764,2.45841 2.33062,4.08864 1.07318,2.41323 2.28897,5.147 4.76645,6.57885 1.26239,0.73074 2.73588,1.07317 4.63724,1.07317 1.12471,0 2.26355,-0.12003 3.36567,-0.2337 1.05058,-0.10873 2.04326,-0.2111 2.96817,-0.2111 0.7251,0 1.32099,0.0671 1.81945,0.19769 1.21156,0.32407 2.54526,1.29416 3.95662,2.32427 2.15553,1.57022 4.600525,3.34801 7.531275,3.34801 2.93076,0 5.37434,-1.77779 7.53058,-3.34801 1.41136,-1.03011 2.74365,-2.0002 3.95591,-2.32427 0.49917,-0.13062 1.09436,-0.19769 1.82087,-0.19769 0.92349,0 1.91618,0.10237 2.96676,0.2111 1.10212,0.11367 2.24236,0.2337 3.36637,0.2337 1.90206,0 3.37415,-0.34243 4.63654,-1.07317 2.47748,-1.43185 3.69468,-4.16562 4.76644,-6.57885 0.72439,-1.63024 1.40854,-3.16444 2.33062,-4.08864 0.92279,-0.92067 2.46054,-1.60552 4.08795,-2.33204 2.41323,-1.06894 5.147,-2.28614 6.58025,-4.76644 1.41348,-2.44076 1.10847,-5.3934 0.84018,-8.00079 -0.18639,-1.79192 -0.36149,-3.48852 -0.0141,-4.78692 0.32407,-1.21368 1.29557,-2.54738 2.32285,-3.95803 v 0"
       style="fill:#231f20;fill-opacity:1;fill-rule:nonzero;stroke:none;stroke-width:0.07060353"
       id="path112"
       inkscape:connector-curvature="0" />
    <path
       d="m 105,176.5935 c -15.491825,0 -28.093855,-12.60131 -28.093855,-28.09173 0,-15.49394 12.60203,-28.09526 28.093855,-28.09526 15.49042,0 28.09315,12.60132 28.09315,28.09526 0,15.49042 -12.60273,28.09173 -28.09315,28.09173 z m 0,-60.35684 c -17.789975,0 -32.262285,14.47443 -32.262285,32.26511 0,17.78715 14.47231,32.26158 32.262285,32.26158 17.78856,0 32.26229,-14.47443 32.26229,-32.26158 0,-17.79068 -14.47373,-32.26511 -32.26229,-32.26511 v 0"
       style="fill:#231f20;fill-opacity:1;fill-rule:nonzero;stroke:none;stroke-width:0.07060353"
       id="path114"
       inkscape:connector-curvature="0" />
  </g>
</svg>
