<?xml version="1.0" encoding="UTF-8" standalone="no"?>
<!-- Created with Inkscape (http://www.inkscape.org/) -->

<svg
   xmlns:dc="http://purl.org/dc/elements/1.1/"
   xmlns:cc="http://creativecommons.org/ns#"
   xmlns:rdf="http://www.w3.org/1999/02/22-rdf-syntax-ns#"
   xmlns:svg="http://www.w3.org/2000/svg"
   xmlns="http://www.w3.org/2000/svg"
   xmlns:sodipodi="http://sodipodi.sourceforge.net/DTD/sodipodi-0.dtd"
   xmlns:inkscape="http://www.inkscape.org/namespaces/inkscape"
   width="210mm"
   height="297mm"
   viewBox="0 0 210 297"
   version="1.1"
   id="svg3913"
   inkscape:version="0.92.1 r15371"
   sodipodi:docname="2.svg">
  <defs
     id="defs3907" />
  <sodipodi:namedview
     id="base"
     pagecolor="#ffffff"
     bordercolor="#666666"
     borderopacity="1.0"
     inkscape:pageopacity="0.0"
     inkscape:pageshadow="2"
     inkscape:zoom="0.35"
     inkscape:cx="400"
     inkscape:cy="560"
     inkscape:document-units="mm"
     inkscape:current-layer="layer1"
     showgrid="false"
     inkscape:window-width="1920"
     inkscape:window-height="1009"
     inkscape:window-x="0"
     inkscape:window-y="34"
     inkscape:window-maximized="1" />
  <metadata
     id="metadata3910">
    <rdf:RDF>
      <cc:Work
         rdf:about="">
        <dc:format>image/svg+xml</dc:format>
        <dc:type
           rdf:resource="http://purl.org/dc/dcmitype/StillImage" />
        <dc:title></dc:title>
      </cc:Work>
    </rdf:RDF>
  </metadata>
  <g
     inkscape:label="Camada 1"
     inkscape:groupmode="layer"
     id="layer1">
    <path
       d="m 98.073759,138.93076 c -4.281398,0 -7.752973,-3.47369 -7.752973,-7.75933 0,-4.27857 3.471575,-7.75226 7.752973,-7.75226 4.283521,0 7.754391,3.47369 7.754391,7.75226 0,4.28564 -3.47087,7.75933 -7.754391,7.75933 z m 34.341561,-17.19902 c -1.4036,-1.63094 -2.9823,-3.12773 -4.69231,-4.45508 -5.71748,-4.44096 -12.55896,-6.79206 -19.7817,-6.79206 -10.062417,0 -19.367256,4.55393 -25.530238,12.49682 -5.291029,6.80618 -7.609649,15.27861 -6.532239,23.83576 1.076704,8.55785 5.421646,16.18797 12.236298,21.47829 5.716768,4.43814 12.556839,6.79136 19.779579,6.79136 h 0.002 c 7.08577,0 14.06987,-2.36805 19.67367,-6.66639 0.5493,-0.42221 1.69096,-1.30404 1.76933,-2.68434 0.0508,-0.88608 -0.34808,-1.75097 -1.18473,-2.57138 l -16.19643,-18.71276 19.42303,-16.8107 c 0.80841,-0.52953 1.36265,-1.51798 1.56528,-2.78178 0.15603,-0.98139 0.10944,-2.37934 -0.53164,-3.12774 v 0"
       style="fill:#231f20;fill-opacity:1;fill-rule:nonzero;stroke:none;stroke-width:0.07060353"
       id="path14"
       inkscape:connector-curvature="0" />
  </g>
</svg>
