<?xml version="1.0" encoding="UTF-8" standalone="no"?>
<!-- Created with Inkscape (http://www.inkscape.org/) -->

<svg
   xmlns:dc="http://purl.org/dc/elements/1.1/"
   xmlns:cc="http://creativecommons.org/ns#"
   xmlns:rdf="http://www.w3.org/1999/02/22-rdf-syntax-ns#"
   xmlns:svg="http://www.w3.org/2000/svg"
   xmlns="http://www.w3.org/2000/svg"
   xmlns:sodipodi="http://sodipodi.sourceforge.net/DTD/sodipodi-0.dtd"
   xmlns:inkscape="http://www.inkscape.org/namespaces/inkscape"
   width="210mm"
   height="297mm"
   viewBox="0 0 210 297"
   version="1.1"
   id="svg183"
   inkscape:version="0.92.1 r15371"
   sodipodi:docname="20.svg">
  <defs
     id="defs177" />
  <sodipodi:namedview
     id="base"
     pagecolor="#ffffff"
     bordercolor="#666666"
     borderopacity="1.0"
     inkscape:pageopacity="0.0"
     inkscape:pageshadow="2"
     inkscape:zoom="0.35"
     inkscape:cx="-97.142857"
     inkscape:cy="560"
     inkscape:document-units="mm"
     inkscape:current-layer="layer1"
     showgrid="false"
     inkscape:window-width="1920"
     inkscape:window-height="1043"
     inkscape:window-x="1920"
     inkscape:window-y="0"
     inkscape:window-maximized="1" />
  <metadata
     id="metadata180">
    <rdf:RDF>
      <cc:Work
         rdf:about="">
        <dc:format>image/svg+xml</dc:format>
        <dc:type
           rdf:resource="http://purl.org/dc/dcmitype/StillImage" />
        <dc:title></dc:title>
      </cc:Work>
    </rdf:RDF>
  </metadata>
  <g
     inkscape:label="Camada 1"
     inkscape:groupmode="layer"
     id="layer1">
    <g
       id="g725"
       transform="translate(-86.255954,-85.000004)">
      <path
         inkscape:connector-curvature="0"
         id="path116"
         style="fill:#231f20;fill-opacity:1;fill-rule:nonzero;stroke:none;stroke-width:0.07060353"
         d="m 197.36597,242.60533 c -0.47234,0.46175 -0.6912,1.12895 -0.57824,1.78486 l 1.22427,7.13307 -6.40657,-3.3692 c -0.58601,-0.30642 -1.28781,-0.30642 -1.87311,0 l -6.4101,3.3692 1.22427,-7.1366 c 0.11297,-0.65238 -0.10237,-1.31958 -0.57895,-1.78133 l -5.18583,-5.05168 7.16485,-1.0407 c 0.65661,-0.0953 1.22426,-0.50834 1.51727,-1.1007 l 3.20328,-6.49129 3.20681,6.49129 c 0.29301,0.59236 0.85713,1.00539 1.51657,1.1007 l 7.16131,1.0407 z m 11.42648,-7.08082 c -0.23299,-0.72934 -0.86419,-1.2624 -1.62247,-1.37183 l -10.15279,-1.47491 -4.54404,-9.20317 c -0.3389,-0.68839 -1.0407,-1.1226 -1.80604,-1.1226 -0.76534,0 -1.46785,0.43774 -1.80604,1.1226 l -4.54051,9.20317 -10.15632,1.47491 c -0.75899,0.10943 -1.38665,0.64249 -1.6267,1.37183 -0.23653,0.72721 -0.0353,1.52786 0.51187,2.06444 l 7.34842,7.16132 -1.73614,10.11395 c -0.12709,0.75475 0.18356,1.5201 0.80135,1.97196 0.6206,0.44833 1.44243,0.50835 2.12375,0.1518 l 9.08032,-4.77704 9.08385,4.77704 c 0.29301,0.15533 0.61355,0.22946 0.93479,0.22946 0.42009,0 0.83595,-0.12709 1.18544,-0.38126 0.6206,-0.45186 0.93125,-1.21721 0.80064,-1.97196 l -1.73544,-10.11395 7.34842,-7.16132 c 0.55,-0.53658 0.74769,-1.33723 0.50764,-2.06444 v 0" />
      <path
         inkscape:connector-curvature="0"
         id="path118"
         style="fill:#231f20;fill-opacity:1;fill-rule:nonzero;stroke:none;stroke-width:0.07060353"
         d="m 229.8782,248.33057 c -3.16446,-1.40713 -5.76831,-3.79917 -7.45786,-6.88596 -1.69307,-3.09032 -2.30379,-6.57248 -1.78485,-9.99393 6.49764,2.89969 10.29752,9.84213 9.24271,16.87989 z m 3.69327,16.96533 c 3.50334,-0.34949 6.94668,0.45115 9.89226,2.26496 -5.20701,4.84693 -13.08496,5.62992 -19.14556,1.90841 2.52972,-2.36381 5.74713,-3.82459 9.2533,-4.17337 z m -3.31625,-51.73121 c -1.61188,-3.06561 -2.176,-6.55483 -1.5907,-10.0257 0.58601,-3.47158 2.26143,-6.58308 4.79045,-8.95041 3.30213,6.30066 1.98678,14.10446 -3.19975,18.97611 z m -19.34255,-1.44314 c 3.38685,-0.70886 6.89726,-0.2923 10.07583,1.22427 3.17857,1.51727 5.71112,3.98274 7.29123,7.06247 -6.97069,1.44667 -14.10729,-1.96137 -17.36706,-8.28674 z m 38.21628,29.11478 c -2.01431,6.82666 -8.39264,11.50414 -15.501,11.39823 2.01079,-6.82595 8.38558,-11.51473 15.501,-11.39823 z m -2.85732,-25.87619 c 0.30006,3.45039 -0.53306,6.88596 -2.42029,9.86048 -1.88723,2.97383 -4.63865,5.18937 -7.8843,6.39174 -0.60295,-7.09 3.63326,-13.77545 10.30459,-16.25222 z m -12.35774,41.30659 c 4.21574,0 8.30792,-1.33652 11.76538,-3.88037 4.2934,-3.15033 7.09777,-7.78898 7.90194,-13.05247 0.16945,-1.10071 -0.5853,-2.12729 -1.68601,-2.29674 -6.10721,-0.93126 -11.99836,1.02305 -16.2847,4.84694 0.22593,-2.13082 0.31418,-4.27222 0.26476,-6.41363 4.71702,-1.33652 8.73154,-4.31811 11.37705,-8.49431 2.8538,-4.49815 3.78153,-9.83931 2.61798,-15.0322 -0.24005,-1.08659 -1.31958,-1.77073 -2.40264,-1.52786 -5.19995,1.16426 -9.63103,4.28281 -12.48482,8.78096 -0.52529,0.82889 -0.98774,1.69378 -1.38312,2.57491 -0.49705,-1.5801 -1.076,-3.13903 -1.73897,-4.67395 8.15259,-6.55836 9.8852,-18.45364 3.74269,-27.08987 -0.30994,-0.43421 -0.77946,-0.73004 -1.30898,-0.81476 -0.52529,-0.0918 -1.06541,0.0318 -1.50245,0.34243 -4.33929,3.09031 -7.21427,7.68307 -8.09964,12.93244 -0.14473,0.86419 -0.22946,1.72838 -0.26123,2.58974 -0.9242,-1.09718 -1.89782,-2.16965 -2.93499,-3.20328 -0.78299,-0.78652 -2.06021,-0.78652 -2.84673,0 -0.78652,0.78652 -0.78652,2.06021 0,2.84673 1.45302,1.45302 2.78672,2.98441 3.99686,4.57582 -4.78691,-2.26143 -10.1669,-2.53679 -15.16211,-0.76605 -1.04775,0.37067 -1.59846,1.5208 -1.22779,2.56856 2.89616,8.17377 10.60395,13.28899 18.81302,13.28899 1.63376,0 3.288,-0.20475 4.9253,-0.62413 1.2278,4.14513 1.8484,8.435 1.86605,12.72417 -2.41323,-4.69514 -6.6678,-8.4343 -12.12474,-10.02924 -1.06894,-0.31418 -2.18377,0.30007 -2.49796,1.36548 -1.49538,5.11169 -0.91008,10.50227 1.64718,15.1727 2.28968,4.1769 5.90952,7.33076 10.30812,9.0203 -2.17953,6.06767 -5.69347,11.75478 -10.54393,16.60948 -2.16965,2.16894 -4.55464,4.11619 -7.09071,5.79232 -0.92844,0.61001 -1.18191,1.85899 -0.56836,2.79025 0.38479,0.5853 1.02657,0.90302 1.68318,0.90302 0.37703,0 0.76535,-0.10944 1.10707,-0.33537 2.62504,-1.73191 5.1011,-3.73916 7.36607,-5.96176 3.46098,2.44147 7.4755,3.63749 11.46884,3.63749 5.77889,0 11.50766,-2.49089 15.44452,-7.29546 0.33889,-0.41303 0.50128,-0.94538 0.44833,-1.47844 -0.053,-0.52882 -0.31419,-1.01951 -0.72722,-1.35771 -4.12042,-3.37272 -9.30978,-4.94224 -14.60787,-4.41342 -1.42195,0.14121 -2.80155,0.43421 -4.13101,0.85713 1.07247,-1.8131 2.02138,-3.67563 2.83967,-5.58474 0.67709,0.0671 1.35842,0.1059 2.03197,0.1059 v 0" />
      <path
         inkscape:connector-curvature="0"
         id="path120"
         style="fill:#231f20;fill-opacity:1;fill-rule:nonzero;stroke:none;stroke-width:0.07060353"
         d="m 147.46622,203.55664 c -0.58601,-3.47158 -0.0212,-6.9608 1.5907,-10.02288 5.18583,4.86882 6.50188,12.67192 3.19622,18.97258 -2.52619,-2.3638 -4.20161,-5.4753 -4.78692,-8.9497 z m 14.05787,8.73083 c 3.17504,-1.51303 6.68827,-1.92959 10.07512,-1.22073 -3.25976,6.32537 -10.39989,9.7334 -17.36705,8.28673 1.5801,-3.08325 4.10983,-5.54873 7.29193,-7.066 z m -7.10836,24.99083 c 1.68954,-3.08679 4.29269,-5.47884 7.45714,-6.88597 1.05905,7.03776 -2.74436,13.98021 -9.23847,16.8799 -0.51894,-3.42498 0.0911,-6.90362 1.78133,-9.99393 z m -6.11709,33.40112 c -3.50335,-0.34949 -6.72075,-1.80957 -9.2533,-4.17338 6.06414,-3.72222 13.93784,-2.93923 19.14838,1.90841 -2.94558,1.8131 -6.38891,2.61375 -9.89508,2.26497 z m -9.08032,-22.19352 c -2.84038,-2.08492 -4.86176,-4.98461 -5.83891,-8.30439 0.0882,0 0.17297,-0.004 0.2577,-0.004 7.00952,0 13.26075,4.66054 15.24683,11.39824 -3.46028,0.06 -6.82948,-1.00187 -9.66562,-3.09032 z m 7.32653,-17.93118 c -6.6671,-2.47677 -10.90754,-9.16222 -10.30459,-16.2494 3.24918,1.19955 6.0013,3.41862 7.885,6.39244 1.88724,2.97382 2.71965,6.40657 2.41959,9.85696 z m 10.89412,-6.8443 c 8.2126,0 15.9211,-5.11523 18.81372,-13.28547 0.3735,-1.04776 -0.17651,-2.20142 -1.22426,-2.56785 -4.99591,-1.77144 -10.37519,-1.49609 -15.16635,0.76181 1.21368,-1.5914 2.54738,-3.11856 3.99758,-4.57581 0.79005,-0.783 0.79005,-2.06022 0,-2.84674 -0.7837,-0.78652 -2.06022,-0.78652 -2.84744,0 -1.03646,1.0407 -2.01432,2.11317 -2.94205,3.2174 -0.21888,-5.97941 -3.10797,-11.80067 -8.35381,-15.53277 -0.90655,-0.64602 -2.16259,-0.43421 -2.80791,0.47234 -3.08678,4.33929 -4.30046,9.62043 -3.41509,14.87334 0.8183,4.86105 3.34802,9.15445 7.15779,12.21652 -0.66297,1.53139 -1.24121,3.09385 -1.73897,4.67466 -0.39538,-0.88254 -0.85712,-1.74673 -1.38312,-2.57914 -2.8538,-4.49745 -7.28487,-7.61318 -12.48412,-8.77673 -0.51893,-0.11649 -1.0654,-0.0212 -1.51727,0.26406 -0.45186,0.28594 -0.76887,0.73781 -0.88536,1.25957 -2.32145,10.354 3.91214,20.66565 13.99432,23.53003 -0.053,2.13435 0.0388,4.27222 0.26476,6.39598 -0.4688,-0.41233 -0.95597,-0.81124 -1.46784,-1.18544 -4.28917,-3.15386 -9.54913,-4.44872 -14.81615,-3.64384 -1.10071,0.16592 -1.85617,1.19602 -1.68672,2.2932 0.80135,5.26632 3.60925,9.90214 7.89912,13.056 3.46028,2.54385 7.55246,3.87685 11.7689,3.87685 0.67356,0 1.35065,-0.0381 2.03127,-0.10591 0.82253,1.91194 1.77144,3.78576 2.85097,5.60239 -6.23006,-1.99667 -13.32077,-0.90302 -18.75018,3.54218 -0.85713,0.70533 -0.98422,1.97196 -0.28242,2.83261 3.37626,4.12042 8.15259,6.68192 13.45139,7.20721 0.67356,0.0671 1.34782,0.0989 2.01432,0.0989 4.11336,0 8.08198,-1.2631 11.45118,-3.64456 2.26496,2.22261 4.74174,4.22986 7.36607,5.96177 0.34243,0.22593 0.72651,0.33537 1.10777,0.33537 0.65591,0 1.29416,-0.32054 1.68248,-0.90655 0.61425,-0.92774 0.35655,-2.17672 -0.57118,-2.79026 -2.53325,-1.67542 -4.92177,-3.62337 -7.09071,-5.79302 -4.85117,-4.85046 -8.36087,-10.5404 -10.54111,-16.60877 9.56395,-3.68622 14.88393,-14.1779 11.95529,-24.18948 -0.31065,-1.06541 -1.4283,-1.67966 -2.49724,-1.369 -5.1117,1.49538 -9.33449,4.88929 -11.89246,9.56395 -0.0847,0.14827 -0.15886,0.29936 -0.23299,0.44833 0.0177,-4.28281 0.63896,-8.56562 1.86675,-12.70722 1.63659,0.41938 3.29084,0.62414 4.92107,0.62414 v 0" />
    </g>
  </g>
</svg>
