<?xml version="1.0" encoding="UTF-8" standalone="no"?>
<!-- Created with Inkscape (http://www.inkscape.org/) -->

<svg
   xmlns:dc="http://purl.org/dc/elements/1.1/"
   xmlns:cc="http://creativecommons.org/ns#"
   xmlns:rdf="http://www.w3.org/1999/02/22-rdf-syntax-ns#"
   xmlns:svg="http://www.w3.org/2000/svg"
   xmlns="http://www.w3.org/2000/svg"
   xmlns:sodipodi="http://sodipodi.sourceforge.net/DTD/sodipodi-0.dtd"
   xmlns:inkscape="http://www.inkscape.org/namespaces/inkscape"
   width="210mm"
   height="297mm"
   viewBox="0 0 210 297"
   version="1.1"
   id="svg183"
   inkscape:version="0.92.1 r15371"
   sodipodi:docname="21.svg">
  <defs
     id="defs177" />
  <sodipodi:namedview
     id="base"
     pagecolor="#ffffff"
     bordercolor="#666666"
     borderopacity="1.0"
     inkscape:pageopacity="0.0"
     inkscape:pageshadow="2"
     inkscape:zoom="0.35"
     inkscape:cx="-97.142857"
     inkscape:cy="560"
     inkscape:document-units="mm"
     inkscape:current-layer="layer1"
     showgrid="false"
     inkscape:window-width="1920"
     inkscape:window-height="1043"
     inkscape:window-x="1920"
     inkscape:window-y="0"
     inkscape:window-maximized="1" />
  <metadata
     id="metadata180">
    <rdf:RDF>
      <cc:Work
         rdf:about="">
        <dc:format>image/svg+xml</dc:format>
        <dc:type
           rdf:resource="http://purl.org/dc/dcmitype/StillImage" />
        <dc:title></dc:title>
      </cc:Work>
    </rdf:RDF>
  </metadata>
  <g
     inkscape:label="Camada 1"
     inkscape:groupmode="layer"
     id="layer1">
    <g
       id="g826"
       transform="translate(-98.351172,-131.11309)">
      <path
         inkscape:connector-curvature="0"
         id="path130"
         style="fill:#231f20;fill-opacity:1;fill-rule:nonzero;stroke:none;stroke-width:0.07060353"
         d="m 203.70924,293.17215 h -0.007 c -8.91013,0 -17.28159,-3.47511 -23.58578,-9.7687 -6.2936,-6.29713 -9.75811,-14.66789 -9.75811,-23.57594 0,-0.95244 0.77664,-1.7319 1.73261,-1.7319 h 37.72558 c 0.96021,0 1.72979,0.77946 1.72979,1.7319 0,0.95598 -0.76958,1.73544 -1.72979,1.73544 h -35.94425 c 0.40597,7.3237 3.46804,14.15742 8.69553,19.38914 5.64475,5.64405 13.1492,8.75202 21.13446,8.75202 7.9782,0 15.47629,-3.10797 21.12457,-8.75202 5.23878,-5.23172 8.28886,-12.06544 8.69836,-19.38914 h -11.42365 c -0.95315,0 -1.72979,-0.77946 -1.72979,-1.73544 0,-0.95244 0.77664,-1.7319 1.72979,-1.7319 h 13.20992 c 0.95315,0 1.72979,0.77946 1.72979,1.7319 0,8.90805 -3.46664,17.27881 -9.77154,23.57594 -6.29077,6.29359 -14.66435,9.7687 -23.56039,9.7687 v 0" />
      <path
         inkscape:connector-curvature="0"
         id="path132"
         style="fill:#231f20;fill-opacity:1;fill-rule:nonzero;stroke:none;stroke-width:0.07060353"
         d="m 203.15147,279.80196 c -0.55777,0.98774 -1.42619,2.62786 -1.42619,3.38332 0,0.83242 0.62131,1.46008 1.44737,1.46008 0.84018,0 1.46855,-0.62766 1.46855,-1.46008 0,-0.50834 -0.78369,-2.10681 -1.48973,-3.38332 z m 0.0212,5.70406 c -1.2991,0 -2.32285,-1.02305 -2.32285,-2.32074 0,-1.03434 1.00257,-2.88274 1.87099,-4.37812 0.0777,-0.13415 0.24711,-0.26477 0.39538,-0.26477 h 0.007 c 0.15533,0 0.32477,0.0388 0.40244,0.16239 0.32477,0.56412 1.96984,3.42145 1.96984,4.4805 0,1.29769 -1.01669,2.32074 -2.32286,2.32074 v 0" />
      <path
         inkscape:connector-curvature="0"
         id="path134"
         style="fill:#231f20;fill-opacity:1;fill-rule:nonzero;stroke:none;stroke-width:0.07060353"
         d="m 196.29587,278.613 c -1.48974,1.28427 -2.30168,2.16964 -2.49937,2.69493 -0.28241,0.77664 0.0918,1.58082 0.87549,1.86958 0.76251,0.27536 1.58151,-0.10237 1.87099,-0.87477 0.17651,-0.46881 -0.0212,-2.24661 -0.24711,-3.68974 z m -1.10848,5.52472 c -0.26829,0 -0.54364,-0.0501 -0.81194,-0.1412 -1.2285,-0.45893 -1.83569,-1.76086 -1.39089,-2.98442 0.36008,-0.97009 1.93454,-2.38498 3.26894,-3.49628 0.12709,-0.0953 0.31066,-0.15533 0.45893,-0.10238 0.14121,0.0565 0.28947,0.1518 0.31065,0.3036 0.12003,0.64178 0.68486,3.89449 0.33184,4.88223 -0.3389,0.93126 -1.1932,1.53845 -2.16753,1.53845 v 0" />
      <path
         inkscape:connector-curvature="0"
         id="path136"
         style="fill:#231f20;fill-opacity:1;fill-rule:nonzero;stroke:none;stroke-width:0.07060353"
         d="m 190.27268,275.15907 c -1.83428,0.68839 -2.91381,1.24898 -3.27036,1.66907 -0.53941,0.64179 -0.46174,1.52009 0.18004,2.05315 0.61002,0.51823 1.53492,0.44057 2.05315,-0.17651 0.32831,-0.38832 0.75829,-2.10963 1.03717,-3.54571 z m -2.14494,4.95002 c -0.54294,0 -1.07246,-0.19416 -1.50597,-0.5613 -0.99127,-0.83595 -1.12189,-2.27202 -0.28594,-3.27036 0.66649,-0.80064 2.62786,-1.57658 4.26869,-2.16258 0.1412,-0.0565 0.34525,-0.0388 0.45962,0.0635 0.12003,0.0918 0.21182,0.23299 0.19063,0.38478 -0.11296,0.64179 -0.68556,3.8945 -1.36335,4.70573 -0.44763,0.53306 -1.08941,0.84018 -1.76368,0.84018 v 0" />
      <path
         inkscape:connector-curvature="0"
         id="path138"
         style="fill:#231f20;fill-opacity:1;fill-rule:nonzero;stroke:none;stroke-width:0.07060353"
         d="m 185.78512,269.84969 c -2.5149,0.0177 -3.36143,0.28594 -3.64738,0.45892 -0.71945,0.41232 -0.94538,1.26663 -0.53306,1.98608 0.40597,0.69827 1.28428,0.94185 1.99314,0.53941 0.46599,-0.27112 1.46079,-1.7778 2.1873,-2.98441 z m -2.93146,4.05758 c -0.82535,0 -1.56952,-0.43774 -1.99314,-1.17555 -0.64884,-1.13177 -0.27464,-2.52549 0.84654,-3.17433 0.6672,-0.39185 2.12022,-0.57895 4.44167,-0.57895 h 0.33183 c 0.1518,0 0.32831,0.0847 0.40527,0.2224 0.0741,0.12356 0.10943,0.29653 0.0318,0.43068 -0.32054,0.56765 -1.97549,3.42145 -2.8891,3.94391 -0.36361,0.21535 -0.76887,0.33184 -1.17484,0.33184 v 0" />
      <path
         inkscape:connector-curvature="0"
         id="path140"
         style="fill:#231f20;fill-opacity:1;fill-rule:nonzero;stroke:none;stroke-width:0.07060353"
         d="m 209.414,278.613 c -0.21887,1.39371 -0.42362,3.19269 -0.24005,3.68974 0.28242,0.7724 1.09436,1.15013 1.871,0.87477 0.78369,-0.28876 1.15789,-1.09294 0.86842,-1.86958 -0.19063,-0.52529 -1.03081,-1.42831 -2.49937,-2.69493 z m 1.10142,5.52472 c -0.96727,0 -1.80745,-0.60719 -2.16047,-1.53845 -0.35302,-0.98774 0.21887,-4.24045 0.34596,-4.88223 0.0212,-0.1518 0.12002,-0.27889 0.26829,-0.33184 0.14121,-0.0494 0.31066,-0.0177 0.42362,0.0777 1.40501,1.16425 2.98653,2.57915 3.33955,3.54924 0.43774,1.2165 -0.16239,2.52549 -1.39795,2.97382 -0.26124,0.10167 -0.53659,0.1518 -0.819,0.1518 v 0" />
      <path
         inkscape:connector-curvature="0"
         id="path142"
         style="fill:#231f20;fill-opacity:1;fill-rule:nonzero;stroke:none;stroke-width:0.07060353"
         d="m 215.44354,275.15907 c 0.27536,1.38312 0.69192,3.14327 1.03788,3.54571 0.5154,0.61708 1.44031,0.69474 2.05456,0.17651 0.30359,-0.25417 0.49422,-0.60013 0.52953,-0.98068 0.0282,-0.37773 -0.0847,-0.75899 -0.35302,-1.07247 -0.35302,-0.42715 -1.45443,-0.98845 -3.26895,-1.66907 z m 2.13929,4.95002 c -0.67779,0 -1.31322,-0.30713 -1.76509,-0.84019 -0.67779,-0.81123 -1.24968,-4.06394 -1.35558,-4.70572 -0.0282,-0.1518 0.0282,-0.30007 0.14826,-0.40244 0.12003,-0.0918 0.27536,-0.12991 0.42362,-0.0671 1.70155,0.60719 3.67139,1.38312 4.34918,2.18376 0.40244,0.49423 0.60013,1.10071 0.54365,1.7079 -0.0565,0.61002 -0.36008,1.16708 -0.83312,1.56246 -0.43069,0.36714 -0.97433,0.5613 -1.51092,0.5613 v 0" />
      <path
         inkscape:connector-curvature="0"
         id="path144"
         style="fill:#231f20;fill-opacity:1;fill-rule:nonzero;stroke:none;stroke-width:0.07060353"
         d="m 219.93393,269.84969 c 0.71309,1.20661 1.72273,2.71329 2.18871,2.98441 0.23299,0.13414 0.4801,0.20122 0.74134,0.20122 0.50834,0 0.98139,-0.27818 1.24262,-0.74063 0.4095,-0.71945 0.19063,-1.57376 -0.53659,-1.98608 -0.27535,-0.17298 -1.12966,-0.44127 -3.63608,-0.45892 z m 2.93005,4.05758 v 0 c -0.40951,0 -0.81194,-0.11014 -1.17908,-0.33184 -0.90373,-0.52246 -2.56291,-3.37626 -2.88769,-3.94391 -0.0777,-0.13415 -0.0777,-0.30712 0,-0.43068 0.0847,-0.13768 0.21887,-0.2224 0.3742,-0.2224 h 0.39538 c 2.3158,0 3.77023,0.1871 4.4339,0.57895 1.13672,0.64884 1.51092,2.04256 0.8543,3.16798 -0.41656,0.74416 -1.17201,1.1819 -1.99101,1.1819 v 0" />
      <path
         inkscape:connector-curvature="0"
         id="path146"
         style="fill:#231f20;fill-opacity:1;fill-rule:nonzero;stroke:none;stroke-width:0.07060353"
         d="m 203.31386,301.20824 h -0.0212 c -10.98591,0 -21.31027,-4.29693 -29.09289,-12.0965 -7.80665,-7.83911 -12.08946,-18.25313 -12.05769,-29.31953 0,-0.95597 0.78017,-1.72484 1.73191,-1.72484 h 8.64681 c 0.95245,0 1.72908,0.76887 1.72908,1.73543 0,0.95245 -0.77663,1.72202 -1.72908,1.72202 h -6.8789 c 0.38832,9.49618 4.2581,18.36892 11.00992,25.14545 7.12248,7.13661 16.58688,11.07699 26.64083,11.07699 h 0.0212 c 20.22085,0 36.7915,-16.10749 37.73758,-36.2655 h -5.90245 c -0.95315,0 -1.73685,-0.77594 -1.73685,-1.73191 1e-5,-0.95597 0.78371,-1.7319 1.73686,-1.7319 h 7.6746 c 0.45893,0 0.89667,0.18357 1.2285,0.50411 0.32478,0.33183 0.50835,0.76957 0.50835,1.22779 -0.0494,22.87413 -18.54755,41.45839 -41.24658,41.45839 v 0" />
      <path
         inkscape:connector-curvature="0"
         id="path148"
         style="fill:#231f20;fill-opacity:1;fill-rule:nonzero;stroke:none;stroke-width:0.07060353"
         d="m 205.06483,283.14574 c 0,1.09718 -0.84725,1.89147 -1.89924,1.89147 -1.03787,0 -1.89218,-0.80064 -1.89218,-1.89147 0,-1.08306 1.41914,-3.48499 1.871,-4.25033 0,-0.007 1.92042,3.2633 1.92042,4.25033 v 0" />
      <path
         inkscape:connector-curvature="0"
         id="path150"
         style="fill:#231f20;fill-opacity:1;fill-rule:nonzero;stroke:none;stroke-width:0.07060353"
         d="m 196.93836,282.41923 c -0.38126,1.02658 -1.44737,1.47491 -2.4217,1.12189 -0.98139,-0.35584 -1.50386,-1.40007 -1.13672,-2.42735 0.3742,-1.01245 2.52761,-2.78672 3.21246,-3.3579 0,0.007 0.68486,3.7321 0.34596,4.66336 v 0" />
      <path
         inkscape:connector-curvature="0"
         id="path152"
         style="fill:#231f20;fill-opacity:1;fill-rule:nonzero;stroke:none;stroke-width:0.07060353"
         d="m 189.57088,278.94766 c -0.69544,0.84371 -1.85193,0.91078 -2.66034,0.25064 -0.8077,-0.67356 -0.94185,-1.83075 -0.25417,-2.67023 0.69544,-0.83241 3.31624,-1.77779 4.1529,-2.08492 0,0 -0.60013,3.74269 -1.23839,4.50451 v 0" />
      <path
         inkscape:connector-curvature="0"
         id="path154"
         style="fill:#231f20;fill-opacity:1;fill-rule:nonzero;stroke:none;stroke-width:0.07060353"
         d="m 183.80963,273.16593 c -0.95597,0.54718 -2.06021,0.20828 -2.5855,-0.69473 -0.5154,-0.90302 -0.25417,-2.03197 0.69121,-2.58198 0.93832,-0.54011 3.72857,-0.5154 4.61465,-0.5154 0,0 -1.86676,3.29507 -2.72036,3.79211 v 0" />
      <path
         inkscape:connector-curvature="0"
         id="path156"
         style="fill:#231f20;fill-opacity:1;fill-rule:nonzero;stroke:none;stroke-width:0.07060353"
         d="m 208.76445,282.41923 c 0.3742,1.02658 1.44031,1.47491 2.4217,1.12189 0.98139,-0.35584 1.4968,-1.40007 1.1226,-2.42735 -0.36714,-1.01245 -2.51349,-2.78672 -3.19834,-3.3579 0,0.007 -0.68486,3.7321 -0.34596,4.66336 v 0" />
      <path
         inkscape:connector-curvature="0"
         id="path158"
         style="fill:#231f20;fill-opacity:1;fill-rule:nonzero;stroke:none;stroke-width:0.07060353"
         d="m 216.14252,278.95119 c 0.70603,0.84018 1.86393,0.89666 2.66175,0.23369 0.79782,-0.68132 0.93197,-1.83851 0.23299,-2.67446 -0.69191,-0.82888 -3.31836,-1.75661 -4.15854,-2.05315 0,0 0.62131,3.73564 1.2638,4.49392 v 0" />
      <path
         inkscape:connector-curvature="0"
         id="path160"
         style="fill:#231f20;fill-opacity:1;fill-rule:nonzero;stroke:none;stroke-width:0.07060353"
         d="m 221.88965,273.16593 c 0.95314,0.54718 2.06162,0.20828 2.58409,-0.69473 0.52246,-0.90302 0.25417,-2.03197 -0.69192,-2.58198 -0.93903,-0.54011 -3.72081,-0.5154 -4.61747,-0.5154 0,0 1.87805,3.29507 2.7253,3.79211 v 0" />
      <path
         inkscape:connector-curvature="0"
         id="path162"
         style="fill:#231f20;fill-opacity:1;fill-rule:nonzero;stroke:none;stroke-width:0.07060353"
         d="m 216.00837,266.34704 c -3.39603,0 -6.59437,-2.37086 -7.77344,-5.77183 -0.31066,-0.89243 0.16238,-1.87312 1.05905,-2.18307 0.89666,-0.31418 1.87805,0.15463 2.18871,1.05765 0.71309,2.03197 2.56997,3.44686 4.52568,3.44686 2.18165,0 3.93262,-1.75662 4.53981,-3.49629 0.31066,-0.90655 1.29204,-1.38241 2.19577,-1.0654 0.8896,0.31418 1.36265,1.29486 1.05199,2.19082 -1.1932,3.42216 -4.39154,5.82126 -7.78757,5.82126 v 0" />
    </g>
  </g>
</svg>
