<?xml version="1.0" encoding="UTF-8" standalone="no"?>
<!-- Created with Inkscape (http://www.inkscape.org/) -->

<svg
   xmlns:dc="http://purl.org/dc/elements/1.1/"
   xmlns:cc="http://creativecommons.org/ns#"
   xmlns:rdf="http://www.w3.org/1999/02/22-rdf-syntax-ns#"
   xmlns:svg="http://www.w3.org/2000/svg"
   xmlns="http://www.w3.org/2000/svg"
   xmlns:sodipodi="http://sodipodi.sourceforge.net/DTD/sodipodi-0.dtd"
   xmlns:inkscape="http://www.inkscape.org/namespaces/inkscape"
   width="210mm"
   height="297mm"
   viewBox="0 0 210 297"
   version="1.1"
   id="svg183"
   inkscape:version="0.92.1 r15371"
   sodipodi:docname="22.svg">
  <defs
     id="defs177" />
  <sodipodi:namedview
     id="base"
     pagecolor="#ffffff"
     bordercolor="#666666"
     borderopacity="1.0"
     inkscape:pageopacity="0.0"
     inkscape:pageshadow="2"
     inkscape:zoom="0.35"
     inkscape:cx="-97.142857"
     inkscape:cy="560"
     inkscape:document-units="mm"
     inkscape:current-layer="layer1"
     showgrid="false"
     inkscape:window-width="1920"
     inkscape:window-height="1043"
     inkscape:window-x="1920"
     inkscape:window-y="0"
     inkscape:window-maximized="1" />
  <metadata
     id="metadata180">
    <rdf:RDF>
      <cc:Work
         rdf:about="">
        <dc:format>image/svg+xml</dc:format>
        <dc:type
           rdf:resource="http://purl.org/dc/dcmitype/StillImage" />
        <dc:title></dc:title>
      </cc:Work>
    </rdf:RDF>
  </metadata>
  <g
     inkscape:label="Camada 1"
     inkscape:groupmode="layer"
     id="layer1">
    <path
       d="m 131.74325,162.6397 c -1.86394,6.25123 -5.43647,11.56697 -10.03982,14.96795 -4.44097,3.28447 -9.31967,4.36753 -13.72533,3.04795 -0.75546,-0.22523 -1.4968,-0.52882 -2.21695,-0.89596 -0.26124,-0.13415 -0.55071,-0.20475 -0.83312,-0.20475 -0.28242,0 -0.56483,0.0671 -0.819,0.19416 -0.67074,0.3389 -1.37677,0.61778 -2.08987,0.82889 -9.29142,2.78742 -19.95962,-5.29456 -23.76515,-18.01238 -3.81259,-12.71781 0.65662,-25.32972 9.94804,-28.11291 5.06933,-1.51727 10.75292,0.15886 15.60338,4.59346 0.32478,0.29936 0.76252,0.48293 1.24262,0.48293 0.50129,0 0.96021,-0.20475 1.29205,-0.53588 4.81516,-4.33929 10.44932,-5.966 15.45511,-4.46638 9.29849,2.78672 13.76063,15.39863 9.94804,28.11292 z m -29.61112,-37.54272 c -0.32478,-2.51137 0.52952,-5.07287 2.35109,-6.8895 1.80745,-1.8131 4.37036,-2.67093 6.88385,-2.34968 0.31772,2.51207 -0.53659,5.07639 -2.3511,6.88949 -1.81451,1.8138 -4.37036,2.67093 -6.88384,2.34969 z m 32.89418,18.25595 c -2.31579,-6.29713 -6.64379,-10.67455 -12.17911,-12.33302 -5.33762,-1.60129 -11.14123,-0.4441 -16.32353,3.15739 -0.39538,-1.94019 -1.10848,-3.76741 -2.07575,-5.42165 2.66176,-0.28594 5.21054,-1.46785 7.1592,-3.41509 3.00065,-3.00206 4.18679,-7.41196 3.08537,-11.5112 -0.16238,-0.63543 -0.66367,-1.12895 -1.29204,-1.2984 -4.10207,-1.09718 -8.51478,0.0883 -11.51543,3.08678 -1.91336,1.91548 -3.08538,4.41343 -3.39604,7.03494 -2.71117,-1.67966 -5.90245,-2.65328 -9.3126,-2.65328 -1.00963,0 -1.83569,0.82182 -1.83569,1.83075 0,1.01245 0.82606,1.83499 1.83569,1.83499 6.27665,0 11.60016,4.1416 13.39349,9.83154 -4.94931,-3.12209 -10.38578,-4.06041 -15.41981,-2.55444 -5.53532,1.65848 -9.85626,6.04013 -12.17911,12.33302 -2.24519,6.11074 -2.32286,13.33489 -0.23299,20.34159 2.10398,7.00599 6.1425,12.99599 11.38129,16.86224 5.39411,3.98698 11.41659,5.26773 16.9519,3.60925 0.62838,-0.1871 1.24263,-0.41303 1.84275,-0.67356 0.65662,0.2923 1.33441,0.54648 2.01221,0.75123 1.58152,0.47233 3.2054,0.70533 4.83634,0.70533 4.08794,0 8.26767,-1.46714 12.12262,-4.31388 5.23173,-3.87048 9.27025,-9.86049 11.37423,-16.86648 2.09693,-7.00599 2.0122,-14.22802 -0.23299,-20.33805 v 0"
       style="fill:#231f20;fill-opacity:1;fill-rule:nonzero;stroke:none;stroke-width:0.07060353"
       id="path164"
       inkscape:connector-curvature="0" />
    <path
       d="m 110.10679,138.15115 c -0.24712,-0.83595 -1.12966,-1.31252 -1.96984,-1.06188 -3.38191,1.01246 -6.07897,4.02511 -7.39925,8.26909 -1.270875,4.08512 -1.214385,8.87557 0.16945,13.49021 0.20475,0.68415 0.83312,1.12896 1.51797,1.12896 0.14827,0 0.3036,-0.0212 0.45187,-0.0671 0.84018,-0.25065 1.31322,-1.13248 1.06611,-1.97196 -1.18614,-3.95874 -1.24968,-8.19848 -0.18357,-11.63828 1.02375,-3.26683 2.89474,-5.46119 5.2882,-6.17711 0.83313,-0.25064 1.31323,-1.13248 1.05906,-1.97196 v 0"
       style="fill:#231f20;fill-opacity:1;fill-rule:nonzero;stroke:none;stroke-width:0.07060353"
       id="path166"
       inkscape:connector-curvature="0" />
  </g>
</svg>
