<?xml version="1.0" encoding="UTF-8" standalone="no"?>
<!-- Created with Inkscape (http://www.inkscape.org/) -->

<svg
   xmlns:dc="http://purl.org/dc/elements/1.1/"
   xmlns:cc="http://creativecommons.org/ns#"
   xmlns:rdf="http://www.w3.org/1999/02/22-rdf-syntax-ns#"
   xmlns:svg="http://www.w3.org/2000/svg"
   xmlns="http://www.w3.org/2000/svg"
   xmlns:sodipodi="http://sodipodi.sourceforge.net/DTD/sodipodi-0.dtd"
   xmlns:inkscape="http://www.inkscape.org/namespaces/inkscape"
   width="210mm"
   height="297mm"
   viewBox="0 0 210 297"
   version="1.1"
   id="svg183"
   inkscape:version="0.92.1 r15371"
   sodipodi:docname="23.svg">
  <defs
     id="defs177" />
  <sodipodi:namedview
     id="base"
     pagecolor="#ffffff"
     bordercolor="#666666"
     borderopacity="1.0"
     inkscape:pageopacity="0.0"
     inkscape:pageshadow="2"
     inkscape:zoom="0.35"
     inkscape:cx="-97.142857"
     inkscape:cy="560"
     inkscape:document-units="mm"
     inkscape:current-layer="layer1"
     showgrid="false"
     inkscape:window-width="1920"
     inkscape:window-height="1043"
     inkscape:window-x="1920"
     inkscape:window-y="0"
     inkscape:window-maximized="1" />
  <metadata
     id="metadata180">
    <rdf:RDF>
      <cc:Work
         rdf:about="">
        <dc:format>image/svg+xml</dc:format>
        <dc:type
           rdf:resource="http://purl.org/dc/dcmitype/StillImage" />
        <dc:title></dc:title>
      </cc:Work>
    </rdf:RDF>
  </metadata>
  <g
     inkscape:label="Camada 1"
     inkscape:groupmode="layer"
     id="layer1">
    <g
       id="g950"
       transform="translate(-96.08333,-134.89286)">
      <path
         inkscape:connector-curvature="0"
         id="path80"
         style="fill:#231f20;fill-opacity:1;fill-rule:nonzero;stroke:none;stroke-width:0.07060353"
         d="m 203.92512,267.87983 h -0.007 c 0.17651,-0.37066 0.3742,-0.79429 0.59307,-1.23838 0.0282,-0.0494 0.0494,-0.10238 0.0777,-0.15886 0.0918,-0.17651 0.19063,-0.35655 0.28948,-0.53941 0.1059,-0.20122 0.21887,-0.41303 0.33184,-0.61778 0.0494,-0.0953 0.0988,-0.18004 0.15532,-0.26829 0.20475,-0.35585 0.4095,-0.71239 0.6425,-1.08306 0.007,-0.01 0.0141,-0.0177 0.0141,-0.024 0.24005,-0.37773 0.50128,-0.75546 0.76957,-1.13954 l 0.88961,-1.15014 c 0.70603,-0.87477 1.46149,-1.65141 2.25931,-2.30732 l 0.41656,-0.34949 0.007,-0.0141 c 1.08024,-0.8077 2.25932,-1.40359 3.53724,-1.64365 4.07382,-0.75475 6.49553,0.84301 7.74521,2.15553 -6.13545,2.05668 -10.90825,6.28301 -12.81454,8.8791 -1.51092,-0.25347 -3.15598,-0.41233 -4.90695,-0.50058 z m 16.40121,10.34342 c 0.0212,0.0282 0.0282,0.0635 0.0494,0.0918 l -4.81517,4.81516 2.11105,2.10258 3.18422,-3.17858 1.58152,2.37087 c 0.38126,2.16259 0.53658,4.52569 0.60719,7.04835 l -1.95572,-1.94724 -5.52826,5.51696 2.11105,2.11316 3.41721,-3.41792 1.92042,1.92607 0.0777,-0.0706 c 0,0.55 0,1.10424 0,1.66836 v 0.3283 c 0,1.73897 -0.14121,3.43628 -0.4095,5.08346 l -1.88512,-0.93479 -5.23172,5.22819 2.11105,2.10257 3.70668,-3.71092 0.66368,0.33819 c -2.85944,10.83411 -11.28244,18.70429 -21.21636,18.70429 h -0.67779 c -9.83508,0 -18.18041,-7.72544 -21.12458,-18.39363 l 0.35302,-0.34949 3.41721,3.41156 2.10398,-2.10257 -5.52119,-5.52826 -1.09436,1.09718 c -0.24711,-1.60834 -0.39538,-3.25906 -0.39538,-4.94578 v -0.3283 c 0,-0.69121 0,-1.36477 0.007,-2.0355 l 1.48268,-1.48832 3.41721,3.41791 2.10399,-2.11316 -5.5212,-5.51696 -1.41913,1.41842 c 0.11296,-3.23152 0.3742,-6.19545 1.08023,-8.78802 l 0.3389,-0.33536 3.41721,3.41156 2.10399,-2.10257 -4.46921,-4.46638 c 0.0847,-0.14403 0.14121,-0.30289 0.21887,-0.44057 1.75803,-2.99147 4.63159,-5.02697 8.7972,-6.2124 l -5.16111,5.16465 2.10398,2.10257 3.41721,-3.41156 3.41721,3.41156 2.10399,-2.10257 -5.31645,-5.31645 c 0.79782,-0.21181 1.64506,-0.38126 2.53467,-0.526 l 0.31771,-0.0487 c 2.16753,-0.33536 4.61747,-0.50481 7.36395,-0.50481 h 0.60013 c 0.32478,0 0.63544,0.007 0.94609,0.007 l 0.0282,0.0106 c 2.78884,0.0424 5.30232,0.27535 7.46985,0.68768 l 0.53659,0.10237 c 0.25417,0.053 0.50128,0.10944 0.75545,0.16239 l -5.42235,5.42588 2.10399,2.10257 3.41721,-3.41156 3.41015,3.41156 2.11105,-2.10257 -5.35881,-5.36234 c 4.55393,1.14307 7.65342,3.25271 9.50323,6.4101 z M 193.60995,268.1686 c -0.86136,-1.81663 -2.82414,-4.15148 -7.27922,-5.67229 0.98138,-0.69826 2.81708,-1.30898 6.18487,-0.68414 1.51091,0.28524 2.63351,0.85359 3.50193,1.54127 0.20475,0.16945 0.40244,0.33537 0.57895,0.51823 0.0918,0.0925 0.18357,0.1871 0.27535,0.28948 0.19063,0.21887 0.36714,0.4448 0.52247,0.67779 0.0424,0.0565 0.0777,0.10944 0.11296,0.16521 0.62132,0.99198 0.92491,2.01079 1.08024,2.80861 -0.0494,0 -0.10591,0.007 -0.16239,0.007 -1.7086,0.0459 -3.30424,0.16239 -4.8081,0.34878 z m -7.61812,-20.09729 c 1.70154,-0.74063 4.04558,-1.40784 6.62967,-1.13954 3.38191,0.3636 5.85303,1.45302 7.6746,2.94558 0.32478,0.27535 0.63544,0.56129 0.93197,0.85712 0.0565,0.0671 0.12709,0.12356 0.18357,0.19063 0.36008,0.38479 0.67779,0.79359 0.96727,1.21368 0.0424,0.0565 0.0777,0.10943 0.11296,0.16945 0.27536,0.42009 0.52953,0.85006 0.75546,1.29486 0.007,0.006 0.007,0.0134 0.0141,0.0212 0.47304,0.95951 0.83312,1.96137 1.08024,2.95264 0.007,0.0141 0.007,0.0282 0.007,0.0417 0.24711,0.97433 0.40244,1.94443 0.48716,2.85097 0.007,0.0812 0.007,0.16239 0.0141,0.24712 0.0282,0.22522 0.0353,0.44409 0.0494,0.66296 -0.0706,0.0812 -0.13415,0.16945 -0.19769,0.24712 -0.16239,0.18286 -0.29654,0.36996 -0.38832,0.53941 -0.0706,0.10237 -0.13415,0.19416 -0.19769,0.29653 -0.21887,0.32125 -0.43068,0.64179 -0.63543,0.96303 -0.0635,0.10591 -0.13415,0.21535 -0.20475,0.31772 -0.23299,0.38126 -0.45186,0.74769 -0.64955,1.11483 -0.0353,0.0487 -0.0635,0.0981 -0.0847,0.15109 -0.48011,0.85077 -0.88255,1.65142 -1.20732,2.34969 -0.47307,-1.73897 -1.44034,-3.64385 -3.17012,-5.13641 -0.49427,-5.84527 -6.54499,-10.78399 -12.17209,-13.15132 z m 27.16824,-5.61298 c 2.97947,-0.34243 5.67652,0.60295 7.50515,1.54198 -5.30232,2.29249 -11.64252,7.17897 -13.03341,13.39843 -0.0212,0.0212 -0.0282,0.0353 -0.0565,0.0565 -0.007,-0.0282 -0.0141,-0.0635 -0.0212,-0.0953 -0.0353,-0.19416 -0.0777,-0.39891 -0.12709,-0.60366 -0.0353,-0.20052 -0.0777,-0.40527 -0.12002,-0.60296 -0.0565,-0.25417 -0.13415,-0.50057 -0.20475,-0.75475 -0.0353,-0.15532 -0.0777,-0.30006 -0.12003,-0.45186 -0.0988,-0.30712 -0.19769,-0.60295 -0.30359,-0.91008 -0.0424,-0.0953 -0.0706,-0.18004 -0.10591,-0.27535 -0.13415,-0.35655 -0.28241,-0.70533 -0.4448,-1.04776 -0.0141,-0.0346 -0.0282,-0.0671 -0.0424,-0.10237 -0.73428,-1.57658 -1.75097,-3.09668 -3.14892,-4.41979 2.20989,-3.27388 5.64122,-5.20348 10.22339,-5.733 z m 11.2542,19.33972 1.76509,-0.42363 -0.76252,-1.64788 c -1.10847,-2.40899 -5.06227,-6.60002 -12.05202,-5.31221 -0.50129,0.0953 -0.98845,0.23228 -1.46856,0.40173 2.71824,-4.47273 8.43713,-7.93725 12.54625,-8.99206 l 2.81708,-0.72651 -2.23813,-1.86323 c -0.21887,-0.18639 -5.50002,-4.52216 -12.20029,-3.73563 -5.43647,0.62413 -9.53854,2.95264 -12.24265,6.8789 -1.9769,-1.19885 -4.48333,-2.06374 -7.6393,-2.40546 -6.29078,-0.67074 -11.28245,3.11855 -11.49426,3.28094 l -2.46406,1.90489 3.02889,0.72651 c 4.53275,1.08305 10.75292,4.82928 12.62391,9.41215 -0.49422,-0.16239 -1.01669,-0.30712 -1.57446,-0.41303 -8.94546,-1.65424 -10.57641,3.81047 -10.63995,4.04276 l -0.42362,1.48903 1.50385,0.36714 c 4.10913,0.98068 6.04367,2.61021 6.96151,3.90508 -5.93069,1.26309 -9.94803,3.89096 -12.3768,8.02903 -3.17716,5.4047 -3.17716,12.76018 -3.17716,20.54563 v 0.3283 c 0,16.42521 11.32481,29.79187 25.24077,29.79187 h 0.68485 c 13.91596,0 25.24076,-13.36666 25.24076,-29.79187 v -0.3283 c 0,-4.93166 -0.007,-9.67974 -0.81194,-13.87783 l 0.0424,-0.0282 -0.0777,-0.12356 c -0.45891,-2.37086 -1.18613,-4.57511 -2.32285,-6.516 -2.20989,-3.75328 -5.72594,-6.26889 -10.78822,-7.64424 2.16753,-2.38499 6.65086,-5.92011 12.29914,-7.27428 v 0" />
      <path
         inkscape:connector-curvature="0"
         id="path82"
         style="fill:#231f20;fill-opacity:1;fill-rule:nonzero;stroke:none;stroke-width:0.07060353"
         d="m 189.80442,307.4051 -5.5212,5.51696 2.10399,2.10258 3.41721,-3.41086 3.41721,3.41086 2.10399,-2.10258 -5.5212,-5.51696" />
      <path
         inkscape:connector-curvature="0"
         id="path84"
         style="fill:#231f20;fill-opacity:1;fill-rule:nonzero;stroke:none;stroke-width:0.07060353"
         d="m 194.7043,320.37285 2.11105,2.09905 3.41015,-3.40804 3.42427,3.40804 2.10399,-2.09905 -5.52826,-5.52119 -5.5212,5.52119" />
      <path
         inkscape:connector-curvature="0"
         id="path86"
         style="fill:#231f20;fill-opacity:1;fill-rule:nonzero;stroke:none;stroke-width:0.07060353"
         d="m 205.13951,312.92206 2.10398,2.10258 3.41721,-3.41086 3.41721,3.41086 2.10399,-2.10258 -5.5212,-5.51696 -5.52119,5.51696" />
      <path
         inkscape:connector-curvature="0"
         id="path88"
         style="fill:#231f20;fill-opacity:1;fill-rule:nonzero;stroke:none;stroke-width:0.07060353"
         d="m 189.80442,299.69308 3.41721,3.41862 2.10399,-2.10963 -5.5212,-5.5212 -5.5212,5.5212 2.10399,2.10963 3.41721,-3.41862" />
      <path
         inkscape:connector-curvature="0"
         id="path90"
         style="fill:#231f20;fill-opacity:1;fill-rule:nonzero;stroke:none;stroke-width:0.07060353"
         d="m 194.7043,306.96736 2.11105,2.10257 3.41015,-3.41156 3.42427,3.41156 2.10399,-2.10257 -5.52826,-5.52826 -5.5212,5.52826" />
      <path
         inkscape:connector-curvature="0"
         id="path92"
         style="fill:#231f20;fill-opacity:1;fill-rule:nonzero;stroke:none;stroke-width:0.07060353"
         d="m 205.13951,301.00207 2.10398,2.10963 3.41721,-3.41862 3.41721,3.41862 2.10399,-2.10963 -5.5212,-5.5212 -5.52119,5.5212" />
      <path
         inkscape:connector-curvature="0"
         id="path94"
         style="fill:#231f20;fill-opacity:1;fill-rule:nonzero;stroke:none;stroke-width:0.07060353"
         d="m 189.80442,287.78015 3.41721,3.41791 2.10399,-2.10963 -5.5212,-5.52049 -5.5212,5.52049 2.10399,2.10963 3.41721,-3.41791" />
      <path
         inkscape:connector-curvature="0"
         id="path96"
         style="fill:#231f20;fill-opacity:1;fill-rule:nonzero;stroke:none;stroke-width:0.07060353"
         d="m 200.2255,289.52617 -5.5212,5.51696 2.11105,2.11316 3.41015,-3.41791 3.42427,3.41791 2.10399,-2.11316 -5.52826,-5.51696" />
      <path
         inkscape:connector-curvature="0"
         id="path98"
         style="fill:#231f20;fill-opacity:1;fill-rule:nonzero;stroke:none;stroke-width:0.07060353"
         d="m 205.13951,289.08843 2.10398,2.10963 3.41721,-3.41791 3.41721,3.41791 2.10399,-2.10963 -5.5212,-5.52049 -5.52119,5.52049" />
      <path
         inkscape:connector-curvature="0"
         id="path100"
         style="fill:#231f20;fill-opacity:1;fill-rule:nonzero;stroke:none;stroke-width:0.07060353"
         d="m 200.2255,281.82121 3.42427,3.41156 2.10399,-2.10257 -5.52826,-5.5212 -5.5212,5.5212 2.11105,2.10257 3.41015,-3.41156" />
    </g>
  </g>
</svg>
