<?xml version="1.0" encoding="UTF-8" standalone="no"?>
<!-- Created with Inkscape (http://www.inkscape.org/) -->

<svg
   xmlns:dc="http://purl.org/dc/elements/1.1/"
   xmlns:cc="http://creativecommons.org/ns#"
   xmlns:rdf="http://www.w3.org/1999/02/22-rdf-syntax-ns#"
   xmlns:svg="http://www.w3.org/2000/svg"
   xmlns="http://www.w3.org/2000/svg"
   xmlns:sodipodi="http://sodipodi.sourceforge.net/DTD/sodipodi-0.dtd"
   xmlns:inkscape="http://www.inkscape.org/namespaces/inkscape"
   width="210mm"
   height="297mm"
   viewBox="0 0 210 297"
   version="1.1"
   id="svg183"
   inkscape:version="0.92.1 r15371"
   sodipodi:docname="24.svg">
  <defs
     id="defs177" />
  <sodipodi:namedview
     id="base"
     pagecolor="#ffffff"
     bordercolor="#666666"
     borderopacity="1.0"
     inkscape:pageopacity="0.0"
     inkscape:pageshadow="2"
     inkscape:zoom="0.35"
     inkscape:cx="-97.142857"
     inkscape:cy="560"
     inkscape:document-units="mm"
     inkscape:current-layer="layer1"
     showgrid="false"
     inkscape:window-width="1920"
     inkscape:window-height="1043"
     inkscape:window-x="1920"
     inkscape:window-y="0"
     inkscape:window-maximized="1" />
  <metadata
     id="metadata180">
    <rdf:RDF>
      <cc:Work
         rdf:about="">
        <dc:format>image/svg+xml</dc:format>
        <dc:type
           rdf:resource="http://purl.org/dc/dcmitype/StillImage" />
        <dc:title></dc:title>
      </cc:Work>
    </rdf:RDF>
  </metadata>
  <g
     inkscape:label="Camada 1"
     inkscape:groupmode="layer"
     id="layer1">
    <g
       id="g1011"
       transform="translate(-106.66666,-117.50595)">
      <path
         inkscape:connector-curvature="0"
         id="path102"
         style="fill:#231f20;fill-opacity:1;fill-rule:nonzero;stroke:none;stroke-width:0.07060353"
         d="m 239.31083,290.50068 c -0.91078,0.12024 -1.62741,0.83623 -1.74531,1.74631 l -1.71849,13.20095 -15.55043,-15.55403 c 0.0431,-0.014 0.0861,-0.0281 0.1292,-0.0386 0.33537,-0.0918 0.74487,-0.134 1.2511,-0.134 0.67144,0 1.40713,0.0775 2.18518,0.15497 0.84018,0.0883 1.70931,0.18011 2.57773,0.18011 1.51445,0 2.69564,-0.27881 3.71657,-0.86793 1.99243,-1.15366 2.93923,-3.28087 3.77376,-5.16097 0.5267,-1.18205 1.02446,-2.30373 1.65777,-2.93527 0.63473,-0.63487 1.75379,-1.13241 2.93852,-1.65806 1.00822,-0.44791 2.08704,-0.9314 3.05078,-1.58752 l 10.93719,10.93614 z m -31.19405,-2.24004 c -1.28074,-0.93493 -2.60456,-1.89796 -4.16208,-2.31417 -0.68203,-0.18343 -1.43466,-0.27168 -2.29743,-0.27168 -0.87972,0 -1.75521,0.0883 -2.60104,0.17651 -0.7724,0.0811 -1.50174,0.15504 -2.16259,0.15504 -0.76181,0 -1.31393,-0.10562 -1.68954,-0.32075 -0.8543,-0.49394 -1.48902,-1.92288 -2.10186,-3.29852 -0.65309,-1.4711 -1.32876,-2.99155 -2.49513,-4.15926 -1.16496,-1.16411 -2.68576,-1.83816 -4.15502,-2.49428 -1.37959,-0.61368 -2.80579,-1.24884 -3.30142,-2.10243 -0.47869,-0.82903 -0.31984,-2.36381 -0.16592,-3.84895 0.16592,-1.61562 0.3389,-3.2842 -0.0939,-4.9001 -0.41585,-1.55575 -1.3803,-2.88204 -2.31297,-4.16257 -0.94185,-1.29127 -1.83146,-2.51553 -1.83146,-3.54889 0,-1.03731 0.88961,-2.25797 1.83146,-3.5486 0.93267,-1.28428 1.89712,-2.60739 2.31297,-4.16702 0.4328,-1.61541 0.25982,-3.28448 0.0939,-4.89636 -0.15392,-1.48479 -0.31277,-3.02324 0.16592,-3.85213 0.49563,-0.85359 1.92183,-1.48903 3.30142,-2.10257 1.46996,-0.65238 2.99006,-1.33017 4.15643,-2.49442 1.16496,-1.16426 1.84063,-2.68435 2.49372,-4.15573 0.61284,-1.37888 1.24756,-2.80437 2.10328,-3.29789 0.37419,-0.21887 0.92631,-0.32477 1.68812,-0.32477 0.66085,0 1.39019,0.0777 2.16259,0.15532 0.84583,0.0875 1.72132,0.17934 2.60104,0.17934 0.86418,0 1.6154,-0.0883 2.29743,-0.27112 1.55752,-0.41656 2.88134,-1.37959 4.16208,-2.31438 1.29416,-0.94186 2.51631,-1.83075 3.55066,-1.83075 1.03575,0 2.25719,0.88889 3.54994,1.83075 1.28075,0.93479 2.60598,1.89782 4.1642,2.31438 0.68203,0.18286 1.43254,0.27112 2.29532,0.27112 0.88042,0 1.75591,-0.0918 2.60103,-0.17934 0.77311,-0.0777 1.50244,-0.15532 2.16259,-0.15532 0.76252,0 1.31534,0.1059 1.68954,0.32477 0.8543,0.49352 1.48903,1.91901 2.10257,3.29789 0.65379,1.47138 1.32947,2.99147 2.49513,4.15573 1.16566,1.16425 2.68576,1.84204 4.15502,2.49442 1.37889,0.61354 2.80649,1.24898 3.30071,2.10257 0.48011,0.82889 0.32054,2.36734 0.16663,3.85213 -0.16663,1.61188 -0.3389,3.28095 0.0932,4.89636 0.41586,1.55963 1.3803,2.88274 2.31297,4.16702 0.94185,1.29063 1.83287,2.51129 1.83287,3.5486 0,1.03336 -0.89102,2.25762 -1.83287,3.54889 -0.93267,1.28053 -1.89711,2.60682 -2.31297,4.16257 -0.43209,1.6159 -0.25982,3.28448 -0.0932,4.89678 0.15391,1.48846 0.31348,3.02324 -0.16804,3.85227 -0.49281,0.8572 -1.92041,1.48875 -3.30001,2.10243 -1.46926,0.65612 -2.99006,1.33017 -4.15431,2.49428 -1.16637,1.16771 -1.84134,2.68816 -2.49513,4.15926 -0.61354,1.37923 -1.24827,2.80458 -2.10328,3.29852 -0.37349,0.21513 -0.92702,0.32075 -1.68883,0.32075 -0.66015,0 -1.38948,-0.0739 -2.16259,-0.15504 -0.84512,-0.0882 -1.72061,-0.17651 -2.60103,-0.17651 -0.86349,0 -1.61471,0.0883 -2.29674,0.27168 -1.55822,0.41621 -2.88203,1.37924 -4.16278,2.31417 -1.29416,0.94185 -2.5156,1.83104 -3.55065,1.83104 -1.03505,0 -2.25649,-0.88919 -3.54995,-1.83104 z m -22.34813,3.98635 c -0.11862,-0.91008 -0.83524,-1.62607 -1.74532,-1.74631 l -13.20357,-1.71792 10.93719,-10.93614 c 0.96304,0.65612 2.04186,1.13962 3.05078,1.58752 1.18402,0.52565 2.30309,1.02319 2.93782,1.65806 0.63402,0.63515 1.13177,1.75322 1.65777,2.93527 0.83594,1.8801 1.78274,4.00731 3.77446,5.16097 1.02163,0.59272 2.20142,0.86793 3.71586,0.86793 0.86843,0 1.73826,-0.0919 2.57845,-0.18011 0.77875,-0.0774 1.51303,-0.15497 2.18518,-0.15497 0.50552,0 0.91431,0.0457 1.25109,0.13401 0.0431,0.0105 0.0861,0.0246 0.12921,0.0386 l -15.55114,15.55402 z m 72.51406,-3.41848 -14.14895,-14.14966 c 0.60931,-1.72505 0.41727,-3.61264 0.24147,-5.31651 -0.13486,-1.30532 -0.26194,-2.54003 -0.0226,-3.43585 0.22169,-0.82931 0.92914,-1.79566 1.67471,-2.82577 1.22356,-1.6757 2.6081,-3.57734 2.6081,-5.93013 0,-2.35307 -1.38454,-4.25464 -2.6081,-5.93359 -0.74557,-1.02728 -1.45302,-1.99667 -1.67471,-2.82626 -0.23935,-0.89596 -0.11226,-2.13081 0.0226,-3.43557 0.21039,-2.02844 0.44762,-4.3287 -0.68909,-6.2936 -1.15225,-1.99313 -3.28166,-2.94275 -5.15971,-3.77517 -1.18402,-0.52882 -2.30309,-1.02657 -2.93711,-1.65777 -0.63472,-0.63543 -1.13248,-1.75308 -1.65918,-2.93852 -0.83453,-1.87664 -1.78133,-4.00745 -3.77376,-5.16111 -1.02093,-0.58954 -2.20212,-0.86419 -3.71657,-0.86419 -0.86842,0 -1.73755,0.0883 -2.57773,0.17651 -0.77876,0.0805 -1.51374,0.15462 -2.18518,0.15462 -0.50623,0 -0.91573,-0.0424 -1.2511,-0.13415 -0.83029,-0.22169 -1.79968,-0.92773 -2.82555,-1.67189 -1.67895,-1.22426 -3.58101,-2.61021 -5.93352,-2.61021 -2.35251,0 -4.25457,1.38595 -5.93282,2.61021 -1.02657,0.74416 -1.99525,1.4502 -2.82555,1.67189 -0.33678,0.0918 -0.74557,0.13415 -1.25109,0.13415 -0.67215,0 -1.40643,-0.0741 -2.18518,-0.15462 -0.84019,-0.0883 -1.71002,-0.17651 -2.57845,-0.17651 -1.51444,0 -2.69423,0.27465 -3.71586,0.86419 -1.99243,1.15366 -2.93852,3.28447 -3.77446,5.16111 -0.52741,1.18544 -1.02375,2.30309 -1.65777,2.93852 -0.63473,0.63473 -1.7538,1.12895 -2.93782,1.65777 -1.87876,0.83242 -4.00675,1.78204 -5.16041,3.77517 -1.13601,1.9649 -0.89878,4.26516 -0.68838,6.2936 0.13414,1.30476 0.26194,2.53961 0.0219,3.43557 -0.2224,0.82959 -0.92844,1.79898 -1.67543,2.82626 -1.22214,1.67895 -2.60738,3.58052 -2.60738,5.93359 0,2.35279 1.38524,4.25443 2.60738,5.93013 0.74699,1.03011 1.45303,1.99646 1.67543,2.82577 0.24005,0.89582 0.11226,2.13053 -0.0219,3.43585 -0.17651,1.70387 -0.36855,3.59146 0.24075,5.31651 l -14.14894,14.14966 c -0.54436,0.54336 -0.73287,1.35142 -0.48505,2.08146 0.24923,0.73032 0.88961,1.25597 1.65495,1.35467 l 15.73541,2.04976 2.0475,15.73379 c 0.10026,0.76562 0.62484,1.40769 1.35488,1.65452 0.21322,0.0742 0.43351,0.10951 0.65167,0.10951 0.52741,0 1.04493,-0.20828 1.43113,-0.59272 l 19.10179,-19.10651 c 1.47773,1.04083 3.14115,2.0249 5.1237,2.0249 1.98325,0 3.64526,-0.98407 5.12299,-2.0249 l 19.10249,19.10651 c 0.3862,0.38444 0.90232,0.59272 1.43114,0.59272 0.21887,0 0.43844,-0.0353 0.65166,-0.10951 0.73075,-0.24683 1.25534,-0.8889 1.35489,-1.65452 l 2.04821,-15.73379 15.7347,-2.04976 c 0.76463,-0.0987 1.40571,-0.62435 1.65424,-1.35467 0.24852,-0.73004 0.0607,-1.5381 -0.48434,-2.08146 v 0" />
      <path
         inkscape:connector-curvature="0"
         id="path104"
         style="fill:#231f20;fill-opacity:1;fill-rule:nonzero;stroke:none;stroke-width:0.07060353"
         d="m 213.60409,265.25604 c -0.3036,-0.16571 -0.63896,-0.25044 -0.97362,-0.25044 -0.33396,0 -0.66933,0.0847 -0.97222,0.25044 l -8.13988,4.4591 1.72838,-9.11922 c 0.1285,-0.6773 -0.0981,-1.37592 -0.60154,-1.84861 l -6.75676,-6.36018 9.20599,-1.17484 c 0.68556,-0.0882 1.27863,-0.51894 1.57376,-1.1466 l 3.96227,-8.39264 3.96227,8.39264 c 0.29371,0.62766 0.88819,1.05834 1.57445,1.1466 l 9.20671,1.17484 -6.75747,6.36018 c -0.50411,0.47269 -0.73145,1.17131 -0.60154,1.84861 l 1.72696,9.11922 z m 12.11415,9.93088 c 0.63332,-0.45871 0.94468,-1.24192 0.79923,-2.01086 l -2.32003,-12.24145 9.07114,-8.54112 c 0.57048,-0.53589 0.78017,-1.35418 0.53871,-2.09905 -0.24288,-0.74416 -0.89243,-1.28357 -1.66978,-1.38242 l -12.35844,-1.57728 -5.31785,-11.26408 c -0.33467,-0.70886 -1.04776,-1.16002 -1.83075,-1.16002 -0.783,0 -1.49539,0.45116 -1.82934,1.16002 l -5.31927,11.26408 -12.35844,1.57728 c -0.77594,0.0988 -1.42619,0.63826 -1.66837,1.38242 -0.24217,0.74487 -0.0325,1.56316 0.5373,2.09905 l 9.07114,8.54112 -2.31933,12.24145 c -0.14544,0.76894 0.16522,1.55215 0.79853,2.01086 0.35302,0.25728 0.77099,0.38804 1.19038,0.38804 0.33324,0 0.6679,-0.0814 0.9722,-0.25072 l 10.9252,-5.9864 10.92519,5.9864 c 0.68697,0.37759 1.52927,0.32464 2.16258,-0.13732 v 0" />
    </g>
  </g>
</svg>
