<?xml version="1.0" encoding="UTF-8" standalone="no"?>
<!-- Created with Inkscape (http://www.inkscape.org/) -->

<svg
   xmlns:dc="http://purl.org/dc/elements/1.1/"
   xmlns:cc="http://creativecommons.org/ns#"
   xmlns:rdf="http://www.w3.org/1999/02/22-rdf-syntax-ns#"
   xmlns:svg="http://www.w3.org/2000/svg"
   xmlns="http://www.w3.org/2000/svg"
   xmlns:sodipodi="http://sodipodi.sourceforge.net/DTD/sodipodi-0.dtd"
   xmlns:inkscape="http://www.inkscape.org/namespaces/inkscape"
   width="210mm"
   height="297mm"
   viewBox="0 0 210 297"
   version="1.1"
   id="svg183"
   inkscape:version="0.92.1 r15371"
   sodipodi:docname="26.svg">
  <defs
     id="defs177" />
  <sodipodi:namedview
     id="base"
     pagecolor="#ffffff"
     bordercolor="#666666"
     borderopacity="1.0"
     inkscape:pageopacity="0.0"
     inkscape:pageshadow="2"
     inkscape:zoom="0.35"
     inkscape:cx="-97.142857"
     inkscape:cy="560"
     inkscape:document-units="mm"
     inkscape:current-layer="layer1"
     showgrid="false"
     inkscape:window-width="1920"
     inkscape:window-height="1043"
     inkscape:window-x="1920"
     inkscape:window-y="0"
     inkscape:window-maximized="1" />
  <metadata
     id="metadata180">
    <rdf:RDF>
      <cc:Work
         rdf:about="">
        <dc:format>image/svg+xml</dc:format>
        <dc:type
           rdf:resource="http://purl.org/dc/dcmitype/StillImage" />
        <dc:title></dc:title>
      </cc:Work>
    </rdf:RDF>
  </metadata>
  <g
     inkscape:label="Camada 1"
     inkscape:groupmode="layer"
     id="layer1">
    <path
       d="m 138.69067,122.63747 c -2.09198,1.10777 -4.40354,2.33556 -6.46869,4.03993 0.0261,-0.49775 0.0395,-0.99127 0.0395,-1.47491 v -10.67525 c 0.0318,-0.14121 0.0487,-0.28241 0.0487,-0.42997 0,-3.69398 3.24917,-6.81607 7.09495,-6.81607 3.79423,0 6.88172,3.08679 6.88172,6.88314 0,4.23974 -2.74506,5.90175 -7.59623,8.47313 z m -17.43201,23.3649 c -4.67819,6.73077 -10.6117,10.59024 -16.28258,10.59024 -5.670165,0 -11.605805,-3.85947 -16.282585,-10.59024 -4.35624,-6.2691 -7.06318,-14.2418 -7.06318,-20.79988 v -18.70428 h 46.690125 v 18.70428 c 9.9e-4,6.55808 -2.70553,14.53078 -7.06178,20.79988 z m -13.46055,29.5415 h -5.64405 c 0.81194,-2.30732 1.23768,-4.84714 1.23768,-7.47543 0,-2.76928 -0.46598,-5.41522 -1.34358,-7.78573 0.9708,0.16577 1.94795,0.25043 2.92793,0.25043 0.97927,0 1.95642,-0.0847 2.92792,-0.25043 -0.87689,2.37051 -1.34429,5.01645 -1.34429,7.78573 0,2.62829 0.42433,5.16811 1.23839,7.47543 z m 18.72759,14.95771 H 83.426475 l 5.92646,-11.01718 H 120.59852 Z M 71.309495,122.63747 c -4.85188,-2.57138 -7.59624,-4.23339 -7.59624,-8.47313 0,-3.79635 3.08679,-6.88314 6.88173,-6.88314 3.84577,0 7.09424,3.12209 7.09424,6.81607 v 11.10522 c 0,0.46881 0.0127,0.94892 0.0381,1.43184 -2.05174,-1.67895 -4.34423,-2.89615 -6.41786,-3.99686 z m 68.095695,-19.29665 c -2.72247,0 -5.21549,0.96656 -7.14367,2.56855 v -1.37959 c 0,-1.09012 -0.88113,-1.97196 -1.96914,-1.97196 H 79.659775 c -1.088,0 -1.97055,0.88184 -1.97055,1.97196 v 1.33723 c -1.919,-1.57375 -4.39507,-2.52619 -7.09424,-2.52619 -5.96812,0 -10.82281,4.85399 -10.82281,10.82352 0,6.81889 5.14911,9.5456 9.69174,11.95529 4.70855,2.49796 9.15799,4.8547 10.22481,11.25004 0.0466,0.28242 -0.14051,0.97715 -0.70322,1.644 -0.26476,0.31059 -0.98138,1.03731 -1.91829,1.03731 -1.65001,0 -2.99289,-1.34069 -2.99289,-2.99154 0,-1.09026 -0.88184,-1.97224 -1.96984,-1.97224 -1.0887,0 -1.97125,0.88198 -1.97125,1.97224 0,3.82057 3.1115,6.93179 6.93398,6.93179 1.71637,0 3.41015,-0.78653 4.69584,-2.17297 1.05834,2.25077 2.29814,4.42373 3.69327,6.43128 3.33954,4.80464 7.20438,8.30085 11.30856,10.30451 1.71144,2.48355 2.68647,5.91968 2.68647,9.51439 0,2.70581 -0.53235,5.27041 -1.54198,7.47543 h -9.7327 c -0.7258,0 -1.3923,0.39849 -1.73543,1.03695 l -8.04881,14.95447 c -0.3276,0.6103 -0.31136,1.35107 0.0438,1.94739 0.35585,0.59236 0.99834,0.9595 1.69167,0.9595 H 129.8236 c 0.001,0 0.002,0 0.004,0 1.08871,0 1.97055,-0.88205 1.97055,-1.97224 0,-0.38084 -0.10873,-0.73717 -0.29442,-1.03695 l -7.99228,-14.85217 c -0.34384,-0.63846 -1.01104,-1.03695 -1.73544,-1.03695 h -9.73411 c -1.00821,-2.20502 -1.54127,-4.76962 -1.54127,-7.47543 0,-3.59831 0.97503,-7.03084 2.68646,-9.51439 4.10419,-2.00366 7.96902,-5.49987 11.30857,-10.30451 1.40219,-2.018 2.64834,-4.20176 3.71022,-6.46658 1.28922,1.40762 2.99641,2.20827 4.72761,2.20827 3.82247,0 6.93327,-3.11122 6.93327,-6.93179 0,-1.09026 -0.88255,-1.97224 -1.97196,-1.97224 -1.0873,0 -1.96984,0.88198 -1.96984,1.97224 0,1.64732 -1.34217,2.99154 -2.99147,2.99154 -0.93691,0 -1.65424,-0.72672 -1.91901,-1.03731 -0.5627,-0.66685 -0.7498,-1.36158 -0.70321,-1.644 1.06753,-6.39534 5.51626,-8.75208 10.22481,-11.25004 4.54333,-2.40969 9.69174,-5.1364 9.69174,-11.95529 0,-5.96953 -4.85469,-10.82352 -10.82281,-10.82352 v 0"
       style="fill:#231f20;fill-opacity:1;fill-rule:nonzero;stroke:none;stroke-width:0.07060353"
       id="path106"
       inkscape:connector-curvature="0" />
    <path
       d="m 104.97608,142.67214 c -2.48877,0 -5.272675,-4.75917 -5.272675,-11.1267 0,-6.36766 2.783895,-11.12633 5.272675,-11.12633 2.48948,0 5.27197,4.75867 5.27197,11.12633 0,6.36753 -2.78248,11.1267 -5.27197,11.1267 z m 0,-26.19412 c -2.68365,0 -5.115225,1.72555 -6.845715,4.8547 -1.52716,2.75848 -2.36805,6.3882 -2.36805,10.21272 0,3.82749 0.84089,7.45419 2.36805,10.21627 1.73049,3.12914 4.162065,4.85067 6.845715,4.85067 2.68434,0 5.11522,-1.72153 6.84572,-4.85067 1.52716,-2.76208 2.36734,-6.38878 2.36734,-10.21627 0,-3.82452 -0.84018,-7.45424 -2.36734,-10.21272 -1.7305,-3.12915 -4.16138,-4.8547 -6.84572,-4.8547 v 0"
       style="fill:#231f20;fill-opacity:1;fill-rule:nonzero;stroke:none;stroke-width:0.07060353"
       id="path108"
       inkscape:connector-curvature="0" />
  </g>
</svg>
