<?xml version="1.0" encoding="UTF-8" standalone="no"?>
<!-- Created with Inkscape (http://www.inkscape.org/) -->

<svg
   xmlns:dc="http://purl.org/dc/elements/1.1/"
   xmlns:cc="http://creativecommons.org/ns#"
   xmlns:rdf="http://www.w3.org/1999/02/22-rdf-syntax-ns#"
   xmlns:svg="http://www.w3.org/2000/svg"
   xmlns="http://www.w3.org/2000/svg"
   xmlns:sodipodi="http://sodipodi.sourceforge.net/DTD/sodipodi-0.dtd"
   xmlns:inkscape="http://www.inkscape.org/namespaces/inkscape"
   width="210mm"
   height="297mm"
   viewBox="0 0 210 297"
   version="1.1"
   id="svg4058"
   inkscape:version="0.92.1 r15371"
   sodipodi:docname="5.svg">
  <defs
     id="defs4052" />
  <sodipodi:namedview
     id="base"
     pagecolor="#ffffff"
     bordercolor="#666666"
     borderopacity="1.0"
     inkscape:pageopacity="0.0"
     inkscape:pageshadow="2"
     inkscape:zoom="0.35"
     inkscape:cx="-362.85714"
     inkscape:cy="560"
     inkscape:document-units="mm"
     inkscape:current-layer="layer1"
     showgrid="false"
     inkscape:window-width="1920"
     inkscape:window-height="1009"
     inkscape:window-x="0"
     inkscape:window-y="34"
     inkscape:window-maximized="1" />
  <metadata
     id="metadata4055">
    <rdf:RDF>
      <cc:Work
         rdf:about="">
        <dc:format>image/svg+xml</dc:format>
        <dc:type
           rdf:resource="http://purl.org/dc/dcmitype/StillImage" />
        <dc:title></dc:title>
      </cc:Work>
    </rdf:RDF>
  </metadata>
  <g
     inkscape:label="Camada 1"
     inkscape:groupmode="layer"
     id="layer1">
    <path
       d="m 103.45745,145.26545 c -2.47606,0 -5.185119,-1.23556 -6.52235,-4.65277 -0.19769,-0.55071 -0.18357,-1.638 -0.18357,-1.73685 v -1.53915 c 0,-4.35624 3.70033,-6.3402 6.92126,-6.3402 3.96227,0 7.0307,3.1701 7.0307,7.13802 0,3.96085 -3.28024,7.13095 -7.24604,7.13095 z m 18.4014,-11.93905 c -0.20122,-0.74134 -0.60366,-1.5321 -0.90302,-2.23108 -3.56689,-8.57126 -11.3594,-11.64252 -17.64947,-11.64252 -8.424411,0 -17.698891,5.64828 -18.940807,17.29081 v 2.37934 c 0,0.0988 0.0353,0.98845 0.08119,1.44031 0.694739,5.54238 5.076394,11.43989 8.343219,16.98862 3.516762,5.94552 7.168377,11.79361 10.783988,17.63817 2.22965,-3.81541 4.45225,-7.68025 6.63249,-11.39682 0.59589,-1.0887 1.28428,-2.17671 1.87664,-3.2174 0.39538,-0.69545 1.15366,-1.38807 1.49962,-2.03197 3.51676,-6.43975 9.1827,-12.93245 9.1827,-19.32207 v -2.62645 c 0,-0.69191 -0.86137,-3.12068 -0.90655,-3.26894 v 0"
       style="fill:#231f20;fill-opacity:1;fill-rule:nonzero;stroke:none;stroke-width:0.07060353"
       id="path42"
       inkscape:connector-curvature="0" />
  </g>
</svg>
