<?xml version="1.0" encoding="UTF-8" standalone="no"?>
<!-- Created with Inkscape (http://www.inkscape.org/) -->

<svg
   xmlns:dc="http://purl.org/dc/elements/1.1/"
   xmlns:cc="http://creativecommons.org/ns#"
   xmlns:rdf="http://www.w3.org/1999/02/22-rdf-syntax-ns#"
   xmlns:svg="http://www.w3.org/2000/svg"
   xmlns="http://www.w3.org/2000/svg"
   xmlns:sodipodi="http://sodipodi.sourceforge.net/DTD/sodipodi-0.dtd"
   xmlns:inkscape="http://www.inkscape.org/namespaces/inkscape"
   width="210mm"
   height="297mm"
   viewBox="0 0 210 297"
   version="1.1"
   id="svg191"
   inkscape:version="0.92.1 r15371"
   sodipodi:docname="7.svg">
  <defs
     id="defs185" />
  <sodipodi:namedview
     id="base"
     pagecolor="#ffffff"
     bordercolor="#666666"
     borderopacity="1.0"
     inkscape:pageopacity="0.0"
     inkscape:pageshadow="2"
     inkscape:zoom="0.35"
     inkscape:cx="-78.571429"
     inkscape:cy="560"
     inkscape:document-units="mm"
     inkscape:current-layer="layer1"
     showgrid="false"
     inkscape:window-width="1920"
     inkscape:window-height="1043"
     inkscape:window-x="1920"
     inkscape:window-y="0"
     inkscape:window-maximized="1" />
  <metadata
     id="metadata188">
    <rdf:RDF>
      <cc:Work
         rdf:about="">
        <dc:format>image/svg+xml</dc:format>
        <dc:type
           rdf:resource="http://purl.org/dc/dcmitype/StillImage" />
        <dc:title></dc:title>
      </cc:Work>
    </rdf:RDF>
  </metadata>
  <g
     inkscape:label="Camada 1"
     inkscape:groupmode="layer"
     id="layer1">
    <path
       d="m 126.89133,136.64708 c -1.19602,0 -2.16611,0.96726 -2.16611,2.16046 0,1.1932 0.97009,2.16047 2.16611,2.16047 1.19603,0 2.16259,-0.96727 2.16259,-2.16047 -0.004,-1.1932 -0.97009,-2.16046 -2.16259,-2.16046 z m -21.88992,1.39795 c -6.914194,0 -12.540594,5.62004 -12.540594,12.53212 0,6.91915 5.6264,12.5406 12.540594,12.5406 6.91138,0 12.53425,-5.62145 12.53425,-12.5406 0,-6.91208 -5.62287,-12.53212 -12.53425,-12.53212 z m 0,27.41958 c -8.209064,0 -14.886744,-6.67556 -14.886744,-14.8804 0,-8.21119 6.67768,-14.88322 14.886744,-14.88322 8.20555,0 14.8804,6.67203 14.8804,14.88322 0,8.20343 -6.67485,14.8804 -14.8804,14.8804 z M 81.594936,132.29084 c -2.58903,0 -4.69231,2.10398 -4.69231,4.68807 v 28.53865 c 0,2.58692 2.10328,4.6902 4.69231,4.6902 h 46.810134 c 2.5855,0 4.68808,-2.10399 4.68808,-4.6902 v -28.53865 c 0,-2.58409 -2.10258,-4.68807 -4.68808,-4.68807 h -11.37352 l -1.28428,-4.58217 c -0.12002,-0.52953 -0.59589,-0.91785 -1.14307,-0.91785 H 95.392276 c -0.55424,0 -1.02304,0.38126 -1.14307,0.92491 l -1.35488,4.57511 z m 46.810134,40.26237 H 81.594936 c -3.88037,0 -7.03776,-3.15598 -7.03776,-7.03565 v -28.53865 c 0,-3.87613 3.15739,-7.03211 7.03776,-7.03211 h 9.54983 l 0.83595,-2.82414 c 0.34243,-1.53916 1.75309,-2.67587 3.41156,-2.67587 h 19.215454 c 1.61258,0 3.03736,1.12965 3.41509,2.68999 l 0.0247,0.0988 0.76181,2.71118 h 9.59573 c 3.88037,0 7.03776,3.15597 7.03776,7.03211 v 28.53865 c -0.003,3.87966 -3.16092,7.03564 -7.03776,7.03564 v 0"
       style="fill:#231f20;fill-opacity:1;fill-rule:nonzero;stroke:none;stroke-width:0.07060353"
       id="path30"
       inkscape:connector-curvature="0" />
  </g>
</svg>
