<?xml version="1.0" encoding="UTF-8" standalone="no"?>
<!-- Created with Inkscape (http://www.inkscape.org/) -->

<svg
   xmlns:dc="http://purl.org/dc/elements/1.1/"
   xmlns:cc="http://creativecommons.org/ns#"
   xmlns:rdf="http://www.w3.org/1999/02/22-rdf-syntax-ns#"
   xmlns:svg="http://www.w3.org/2000/svg"
   xmlns="http://www.w3.org/2000/svg"
   xmlns:sodipodi="http://sodipodi.sourceforge.net/DTD/sodipodi-0.dtd"
   xmlns:inkscape="http://www.inkscape.org/namespaces/inkscape"
   width="210mm"
   height="297mm"
   viewBox="0 0 210 297"
   version="1.1"
   id="svg183"
   inkscape:version="0.92.1 r15371"
   sodipodi:docname="9.svg">
  <defs
     id="defs177" />
  <sodipodi:namedview
     id="base"
     pagecolor="#ffffff"
     bordercolor="#666666"
     borderopacity="1.0"
     inkscape:pageopacity="0.0"
     inkscape:pageshadow="2"
     inkscape:zoom="0.35"
     inkscape:cx="-97.142857"
     inkscape:cy="560"
     inkscape:document-units="mm"
     inkscape:current-layer="layer1"
     showgrid="false"
     inkscape:window-width="1920"
     inkscape:window-height="1043"
     inkscape:window-x="1920"
     inkscape:window-y="0"
     inkscape:window-maximized="1" />
  <metadata
     id="metadata180">
    <rdf:RDF>
      <cc:Work
         rdf:about="">
        <dc:format>image/svg+xml</dc:format>
        <dc:type
           rdf:resource="http://purl.org/dc/dcmitype/StillImage" />
        <dc:title></dc:title>
      </cc:Work>
    </rdf:RDF>
  </metadata>
  <g
     inkscape:label="Camada 1"
     inkscape:groupmode="layer"
     id="layer1">
    <g
       id="g245"
       transform="translate(-2e-6,-23.76786)">
      <path
         inkscape:connector-curvature="0"
         id="path22"
         style="fill:#231f20;fill-opacity:1;fill-rule:nonzero;stroke:none;stroke-width:0.07060353"
         d="m 78.936707,156.38877 h 52.119533 c 1.34852,0 2.44994,-1.10142 2.44994,-2.44288 0,-1.34853 -1.10142,-2.44288 -2.44994,-2.44288 H 78.936707 c -1.341468,0 -2.442883,1.09435 -2.442883,2.44288 0,1.34146 1.101415,2.44288 2.442883,2.44288 v 0" />
      <path
         inkscape:connector-curvature="0"
         id="path24"
         style="fill:#231f20;fill-opacity:1;fill-rule:nonzero;stroke:none;stroke-width:0.07060353"
         d="m 78.936707,174.71039 h 52.119533 c 1.34852,0 2.44994,-1.10142 2.44994,-2.44289 0,-1.34146 -1.10142,-2.44288 -2.44994,-2.44288 H 78.936707 c -1.341468,0 -2.442883,1.10142 -2.442883,2.44288 0,1.34147 1.101415,2.44289 2.442883,2.44289 v 0" />
      <path
         inkscape:connector-curvature="0"
         id="path26"
         style="fill:#231f20;fill-opacity:1;fill-rule:nonzero;stroke:none;stroke-width:0.07060353"
         d="m 78.936707,193.03271 h 52.119533 c 1.34852,0 2.44994,-1.0993 2.44994,-2.44218 0,-1.34358 -1.10142,-2.44358 -2.44994,-2.44358 H 78.936707 c -1.341468,0 -2.442883,1.1 -2.442883,2.44358 0,1.34288 1.101415,2.44218 2.442883,2.44218 v 0" />
    </g>
  </g>
</svg>
